<?xml version="1.0" encoding="UTF-8"?>
<svg width="751px" height="975px" viewBox="0 0 751 975" version="1.1" xmlns="http://www.w3.org/2000/svg" xmlns:xlink="http://www.w3.org/1999/xlink">
    <!-- Generator: Sketch 55.2 (78181) - https://sketchapp.com -->
    <title>illustration-process</title>
    <desc>Created with Sketch.</desc>
    <g id="Design" stroke="none" stroke-width="1" fill="none" fill-rule="evenodd">
        <g id="illustration-process" transform="translate(0.000000, -22.000000)">
            <g id="Group-10" transform="translate(0.000000, 22.000000)" fill="#FFFFFE">
                <path d="M138.6379,119.8315 L117.7909,119.8315 C113.2779,119.8315 109.6179,116.1725 109.6179,111.6585 L109.6179,8.4325 C109.6179,3.9175 113.2779,0.2585 117.7909,0.2585 L138.6379,0.2585 C143.1529,0.2585 146.8109,3.9175 146.8109,8.4325 L146.8109,111.6585 C146.8109,116.1725 143.1529,119.8315 138.6379,119.8315" id="Fill-2"></path>
                <path d="M84.303,119.8315 L63.456,119.8315 C58.943,119.8315 55.283,116.1725 55.283,111.6585 L55.283,8.4325 C55.283,3.9175 58.943,0.2585 63.456,0.2585 L84.303,0.2585 C88.817,0.2585 92.476,3.9175 92.476,8.4325 L92.476,111.6585 C92.476,116.1725 88.817,119.8315 84.303,119.8315" id="Fill-4"></path>
                <path d="M29.968,119.8315 L9.121,119.8315 C4.608,119.8315 0.948,116.1725 0.948,111.6585 L0.948,8.4325 C0.948,3.9175 4.608,0.2585 9.121,0.2585 L29.968,0.2585 C34.482,0.2585 38.141,3.9175 38.141,8.4325 L38.141,111.6585 C38.141,116.1725 34.482,119.8315 29.968,119.8315" id="Fill-6"></path>
                <polygon id="Fill-8" points="474.1917 696.8252 473.8677 686.5522 425.7587 686.5522 473.0617 661.0762 471.6507 616.4522 728.9817 610.1652 722.4307 697.9412"></polygon>
            </g>
            <text id="G" font-family="Pistacho-Sans2, Pistacho" font-size="80" font-weight="normal" fill="#000105">
                <tspan x="174.8721" y="88.8074055">G</tspan>
            </text>
            <text id="rown" font-family="Pistacho-Sans2, Pistacho" font-size="80" font-weight="normal" letter-spacing="-0.001" fill="#000105">
                <tspan x="196.5521" y="88.8074055">rown</tspan>
            </text>
            <text id="Anal" font-family="Pistacho-Sans2, Pistacho" font-size="80" font-weight="normal" letter-spacing="-0.001" fill="#000105">
                <tspan x="400.9521" y="428.887405">Ana</tspan>
                <tspan x="475.4291" y="428.887405">l</tspan>
            </text>
            <text id="ysis" font-family="Pistacho-Sans2, Pistacho" font-size="80" font-weight="normal" letter-spacing="-0.001" fill="#000105">
                <tspan x="489.9121" y="428.887405">ysis</tspan>
            </text>
            <text id="Enc" font-family="Pistacho-Sans2, Pistacho" font-size="80" font-weight="normal" letter-spacing="-0.001" fill="#000105">
                <tspan x="226.5521" y="563.127405">En</tspan>
                <tspan x="270.5501" y="563.127405">c</tspan>
            </text>
            <text id="apsula" font-family="Pistacho-Sans2, Pistacho" font-size="80" font-weight="normal" letter-spacing="-0.001" fill="#000105">
                <tspan x="290.7921" y="563.127405">apsul</tspan>
                <tspan x="395.1071" y="563.127405">a</tspan>
            </text>
            <text id="tion" font-family="Pistacho-Sans2, Pistacho" font-size="80" font-weight="normal" letter-spacing="-0.001" fill="#000105">
                <tspan x="418.7921" y="563.127405">tion</tspan>
            </text>
            <text id="P" font-family="Pistacho-Sans2, Pistacho" font-size="80" font-weight="normal" fill="#000105">
                <tspan x="124.8721" y="787.767405">P</tspan>
            </text>
            <text id="ackaging" font-family="Pistacho-Sans2, Pistacho" font-size="80" font-weight="normal" letter-spacing="-0.001" fill="#000105">
                <tspan x="145.3521" y="787.767405">ackaging</tspan>
            </text>
            <text id="in-recyclable" font-family="NexaRustSans-Black, Nexa Rust Sans" font-size="25.9525" font-weight="700" fill="#000105">
                <tspan x="482.9023" y="668.131337">in recyclable</tspan>
            </text>
            <text id="glass!" font-family="NexaRustSans-Black, Nexa Rust Sans" font-size="40.0355" font-weight="700" fill="#000105">
                <tspan x="517.457" y="708.266903">glass!</tspan>
            </text>
            <g id="Group-28" transform="translate(69.000000, 69.000000)">
                <path d="M274.3079,223.8486 C252.5479,202.0886 217.2689,202.0886 195.5089,223.8486 C173.7499,245.6076 173.7499,280.8876 195.5089,302.6466 C217.2689,324.4056 252.5479,324.4056 274.3079,302.6466 C296.0669,280.8876 296.0669,245.6076 274.3079,223.8486 Z" id="Stroke-11" stroke="#FFFFFE" stroke-width="8"></path>
                <path d="M274.3079,302.6465 L315.5819,343.9205" id="Stroke-13" stroke="#FFFFFE" stroke-width="10" stroke-linejoin="round"></path>
                <path d="M197.0735,263.2476 C197.0735,242.3516 214.0125,225.4126 234.9085,225.4126 C255.8035,225.4126 272.7435,242.3516 272.7435,263.2476 C272.7435,284.1436 255.8035,301.0826 234.9085,301.0826 C214.0125,301.0826 197.0735,284.1436 197.0735,263.2476" id="Fill-15" fill="#FFFFFE"></path>
                <path d="M0.6243,92.1709 C5.2973,146.8289 115.2743,168.0779 270.8833,84.3319 C437.8923,-5.5501 588.1233,-40.7831 588.1233,67.9509" id="Stroke-17" stroke="#FFFFFE" stroke-width="5" stroke-linecap="round" stroke-linejoin="round" stroke-dasharray="10,20"></path>
                <path d="M588.1233,235.4399 C586.5323,309.3899 504.6683,293.8069 313.0483,271.7139" id="Stroke-19" stroke="#FFFFFE" stroke-width="5" stroke-linecap="round" stroke-linejoin="round" stroke-dasharray="10,20"></path>
                <path d="M151.5432,257.0322 C-1.7578,238.7182 -3.2728,310.5532 9.2092,395.0112" id="Stroke-21" stroke="#FFFFFE" stroke-width="5" stroke-linecap="round" stroke-linejoin="round" stroke-dasharray="10,20"></path>
                <polygon id="Fill-23" fill="#000105" points="283.863 610.907 331.492 610.907 331.492 596.056 283.863 596.056"></polygon>
                <path d="M323.3098,617.0898 L323.3098,610.9068 L292.0458,610.9068 L292.0458,617.0898 C292.0458,621.9168 288.1328,625.8298 283.3058,625.8298 C278.4788,625.8298 274.5658,629.7428 274.5658,634.5698 L274.5658,714.2948 C274.5658,718.9808 278.3638,722.7788 283.0498,722.7788 L332.3058,722.7788 C336.9928,722.7788 340.7898,718.9808 340.7898,714.2948 L340.7898,634.5698 C340.7898,629.7428 336.8768,625.8298 332.0498,625.8298 C327.2228,625.8298 323.3098,621.9168 323.3098,617.0898" id="Fill-25" fill="#FFFFFE"></path>
                <path d="M40.7385,523.8184 C60.8525,616.5304 121.6745,644.0384 253.5975,660.9004" id="Stroke-26" stroke="#FFFFFE" stroke-width="5" stroke-linecap="round" stroke-linejoin="round" stroke-dasharray="10,20"></path>
                <path d="M367.759,674.5674 C443.49,684.6364 571.545,714.7324 573.03,791.4254" id="Stroke-27" stroke="#FFFFFE" stroke-width="5" stroke-linecap="round" stroke-linejoin="round" stroke-dasharray="10,20"></path>
            </g>
            <text id="Delivered-to" font-family="Pistacho-Sans2, Pistacho" font-size="80" font-weight="normal" fill="#000105">
                <tspan x="325.375" y="920.527105">Delivered to</tspan>
            </text>
            <g id="Group-30" transform="translate(242.000000, 882.000000)" fill="#000105" font-family="Pistacho-Sans2, Pistacho" font-size="80" font-weight="normal">
                <text id="y">
                    <tspan x="0.9771" y="88.5271055">y</tspan>
                </text>
                <text id="our-local-store">
                    <tspan x="24.1771" y="88.5271055">our local store</tspan>
                </text>
            </g>
            <text id="H" font-family="Pistacho-Sans2, Pistacho" font-size="80" font-weight="normal" fill="#000105">
                <tspan x="376.0186" y="226.134605">H</tspan>
            </text>
            <text id="arvesting" font-family="Pistacho-Sans2, Pistacho" font-size="80" font-weight="normal" letter-spacing="-0.001" fill="#000105">
                <tspan x="405.4586" y="226.134605">arvesting</tspan>
            </text>
            <g id="Group-97" transform="translate(6.000000, 54.000000)">
                <path d="M698.3645,158.1519 C698.3645,163.6759 676.7185,168.1539 650.0175,168.1539 C623.3175,168.1539 601.6725,163.6759 601.6725,158.1519 C601.6725,152.6279 623.3175,148.1489 650.0175,148.1489 C676.7185,148.1489 698.3645,152.6279 698.3645,158.1519 Z" id="Stroke-31" stroke="#FFFFFE" stroke-width="5.529"></path>
                <path d="M650.0178,142.1187 C623.3178,142.1187 601.6718,146.5977 601.6718,152.1217 L601.6718,213.9997 C601.6718,219.5247 623.3178,224.0027 650.0178,224.0027 C676.7188,224.0027 698.3648,219.5247 698.3648,213.9997 L698.3648,152.1217 C698.3648,146.5977 676.7188,142.1187 650.0178,142.1187" id="Fill-33" fill="#FFFFFE"></path>
                <path d="M650.0178,142.1187 C623.3178,142.1187 601.6718,146.5977 601.6718,152.1217 L601.6718,213.9997 C601.6718,219.5247 623.3178,224.0027 650.0178,224.0027 C676.7188,224.0027 698.3648,219.5247 698.3648,213.9997 L698.3648,152.1217 C698.3648,146.5977 676.7188,142.1187 650.0178,142.1187 Z" id="Stroke-35" stroke="#FFFFFE" stroke-width="5"></path>
                <path d="M682.9534,183.2002 C687.0104,183.2002 690.2984,179.9112 690.2984,175.8542 C690.2984,171.7982 687.0104,168.5092 682.9534,168.5092 C678.8954,168.5092 675.6074,171.7982 675.6074,175.8542 C675.6074,179.9112 678.8954,183.2002 682.9534,183.2002" id="Fill-37" fill="#000105"></path>
                <path d="M616.385,174.832 C620.073,174.832 623.063,171.842 623.063,168.154 C623.063,164.466 620.073,161.477 616.385,161.477 C612.697,161.477 609.707,164.466 609.707,168.154 C609.707,171.842 612.697,174.832 616.385,174.832" id="Fill-39" fill="#000105"></path>
                <path d="M672.2571,213.5674 C674.8391,213.5674 676.9321,211.4744 676.9321,208.8934 C676.9321,206.3114 674.8391,204.2184 672.2571,204.2184 C669.6751,204.2184 667.5821,206.3114 667.5821,208.8934 C667.5821,211.4744 669.6751,213.5674 672.2571,213.5674" id="Fill-41" fill="#000105"></path>
                <path d="M648.8967,197.2231 C652.9537,197.2231 656.2417,193.9341 656.2417,189.8771 C656.2417,185.8211 652.9537,182.5321 648.8967,182.5321 C644.8387,182.5321 641.5507,185.8211 641.5507,189.8771 C641.5507,193.9341 644.8387,197.2231 648.8967,197.2231" id="Fill-43" fill="#000105"></path>
                <path d="M624.054,213.5674 C629.218,213.5674 633.404,209.3814 633.404,204.2184 C633.404,199.0554 629.218,194.8694 624.054,194.8694 C618.891,194.8694 614.705,199.0554 614.705,204.2184 C614.705,209.3814 618.891,213.5674 624.054,213.5674" id="Fill-45" fill="#000105"></path>
                <path d="M656.2415,165.4971 C660.2985,165.4971 663.5875,162.2081 663.5875,158.1521 C663.5875,154.0951 660.2985,150.8061 656.2415,150.8061 C652.1845,150.8061 648.8965,154.0951 648.8965,158.1521 C648.8965,162.2081 652.1845,165.4971 656.2415,165.4971" id="Fill-47" fill="#000105"></path>
                <path d="M698.3645,103.1553 C698.3645,108.6793 676.7185,113.1583 650.0175,113.1583 C623.3175,113.1583 601.6725,108.6793 601.6725,103.1553 C601.6725,97.6313 623.3175,93.1533 650.0175,93.1533 C676.7185,93.1533 698.3645,97.6313 698.3645,103.1553 Z" id="Stroke-49" stroke="#FFFFFE" stroke-width="8"></path>
                <path d="M601.6721,103.1553 L601.6721,214.0003 C601.6721,219.5243 623.3181,224.0033 650.0181,224.0033 C676.7191,224.0033 698.3641,219.5243 698.3641,214.0003 L698.3641,103.1553" id="Stroke-51" stroke="#FFFFFE" stroke-width="8"></path>
                <path d="M324.801,283.2847 C327.583,283.2847 329.838,281.0297 329.838,278.2477 C329.838,275.4657 327.583,273.2097 324.801,273.2097 C322.019,273.2097 319.764,275.4657 319.764,278.2477 C319.764,281.0297 322.019,283.2847 324.801,283.2847" id="Fill-53" fill="#000105"></path>
                <path d="M288.4993,307.4722 C291.2813,307.4722 293.5373,305.2172 293.5373,302.4342 C293.5373,299.6532 291.2813,297.3972 288.4993,297.3972 C285.7183,297.3972 283.4623,299.6532 283.4623,302.4342 C283.4623,305.2172 285.7183,307.4722 288.4993,307.4722" id="Fill-55" fill="#000105"></path>
                <path d="M313.5754,269.1548 C317.9464,269.1548 321.4914,265.6108 321.4914,261.2388 C321.4914,256.8668 317.9464,253.3228 313.5754,253.3228 C309.2034,253.3228 305.6594,256.8668 305.6594,261.2388 C305.6594,265.6108 309.2034,269.1548 313.5754,269.1548" id="Fill-57" fill="#000105"></path>
                <path d="M309.6887,305.0254 C315.2527,305.0254 319.7637,300.5144 319.7637,294.9504 C319.7637,289.3864 315.2527,284.8754 309.6887,284.8754 C304.1247,284.8754 299.6137,289.3864 299.6137,294.9504 C299.6137,300.5144 304.1247,305.0254 309.6887,305.0254" id="Fill-59" fill="#000105"></path>
                <path d="M98.8723,490.2231 C91.7423,481.5461 81.2603,476.4921 71.3093,473.0601 C57.2913,468.2251 42.2623,465.9621 27.5693,466.7241 C21.4533,467.0411 15.2343,468.4291 10.0563,472.0311 C4.8773,475.6331 0.8743,481.7201 0.5423,488.4621 C0.1333,496.7791 5.1573,504.2601 10.8513,509.7321 C20.2233,518.7381 32.0223,524.4551 44.2663,526.8211 C61.2503,530.1031 94.3163,529.6941 102.4863,508.2861 C103.6393,505.2661 104.1083,501.8611 103.4123,498.6761 C102.7793,495.7801 101.2313,493.2231 99.4683,490.9661 C99.2723,490.7161 99.0733,490.4681 98.8723,490.2231" id="Fill-61" fill="#FFFFFE"></path>
                <path d="M88.8792,494.3862 C88.7742,495.2342 88.2722,496.0062 87.4382,496.5582 C86.6352,497.0912 85.6902,497.3042 84.7582,497.4162 C80.1122,497.9722 75.2752,496.0852 71.9812,492.4302 C70.8332,491.1582 69.8152,489.3242 70.4152,487.6572 C70.9372,486.2062 72.4792,485.5442 73.8892,485.4122 C77.2042,485.1012 80.8152,486.6372 83.7272,488.2822 C85.5042,489.2872 87.2112,490.5542 88.3412,492.2922 C88.7942,492.9902 88.9622,493.7122 88.8792,494.3862" id="Fill-63" fill="#000105"></path>
                <path d="M193.0803,494.1436 C191.6283,492.2726 189.8603,490.6886 188.1113,489.5396 C175.8333,481.4626 159.7183,478.7246 145.6613,479.3276 C140.9903,479.5276 136.2163,480.1666 132.0563,482.5136 C127.8933,484.8606 124.4153,489.2026 123.9173,494.3276 C123.2583,501.1106 127.7753,507.1986 132.7403,511.2666 C148.1563,523.8996 172.0673,526.6116 188.5593,515.0876 C192.4563,512.3646 196.2183,508.3316 196.3983,503.2466 C196.5173,499.9216 195.1063,496.7536 193.0803,494.1436" id="Fill-65" fill="#FFFFFE"></path>
                <path d="M184.6389,498.2388 C184.4819,499.1008 183.8169,499.8938 183.0299,500.2648 C179.5249,501.9218 174.4409,499.9698 171.8279,497.4308 C170.8309,496.4618 169.9459,494.9648 170.5259,493.6558 C170.8919,492.8308 171.7449,492.3658 172.5849,492.1728 C175.7799,491.4388 183.4779,493.4798 184.5969,497.3078 C184.6869,497.6158 184.6959,497.9318 184.6389,498.2388" id="Fill-67" fill="#000105"></path>
                <path d="M156.428,422.6255 C155.042,421.6925 153.548,420.9335 152.027,420.3385 C143.007,416.8115 133.295,416.8545 123.875,417.4105 C112.291,418.0955 100.649,420.1875 89.918,425.2175 C82.842,428.5345 75.614,434.0625 74.228,442.4035 C73.169,448.7765 75.967,455.4065 80.319,459.7605 C84.669,464.1135 90.368,466.4825 96.093,467.9395 C108.02,470.9755 120.656,470.2115 132.303,466.1355 C142.893,462.4295 156.734,455.1645 161.97,443.6435 C164.023,439.1265 164.484,433.7995 162.299,429.2225 C160.975,426.4505 158.869,424.2685 156.428,422.6255" id="Fill-69" fill="#FFFFFE"></path>
                <path d="M149.2815,430.7671 C149.5165,434.3921 144.7985,435.4751 142.3595,435.8251 C139.5445,436.2291 131.9225,435.3141 131.950423,430.8081 C131.9575,429.6901 132.6825,428.6721 133.6145,428.0671 C134.5475,427.4631 135.6595,427.2141 136.7585,427.0611 C138.9435,426.7581 141.1775,426.7981 143.3535,427.1811 C145.1075,427.4891 146.8685,428.0411 148.2585,429.1651 C148.7625,429.5761 149.2395,430.1151 149.2815,430.7671" id="Fill-71" fill="#000105"></path>
                <path d="M701.217,859.3047 L714.698,859.3047 C715.438,859.3047 716.065,859.5597 716.576,860.0727 L733.214,876.7087 C733.726,877.2217 733.982,877.8477 733.982,878.5867 L733.982,881.1457 L701.217,881.1457 L701.217,859.3047 Z M744.902,886.6077 C744.902,886.1517 744.916,885.1577 744.945,883.6197 C744.972,882.0837 744.972,881.0027 744.945,880.3777 C744.916,879.7517 744.844,878.7707 744.731,877.4337 C744.618,876.0957 744.432,875.0447 744.177,874.2757 C743.921,873.5097 743.523,872.6397 742.983,871.6747 C742.441,870.7067 741.802,869.8547 741.063,869.1157 L724.168,852.2207 C723.088,851.1397 721.653,850.2317 719.861,849.4917 C718.069,848.7517 716.405,848.3817 714.868,848.3817 L701.216,848.3817 L701.216,831.9997 C701.216,830.5217 700.676,829.2417 699.595,828.1597 C698.515,827.0807 697.235,826.5387 695.756,826.5387 L574.503,826.5387 C573.027,826.5387 571.744,827.0807 570.664,828.1597 C569.584,829.2427 569.044999,830.5227 569.044999,832.0007 L569.044999,919.3697 C569.044999,920.2217 569.156,920.9767 569.387,921.6297 C569.613,922.2837 569.998,922.8107 570.539,923.2087 C571.079,923.6087 571.548,923.9347 571.946,924.1907 C572.346,924.4467 573.013,924.6167 573.951,924.7017 C574.889,924.7877 575.529,924.8457 575.872,924.8737 C576.213,924.9007 576.939,924.9007 578.048,924.8737 C579.156,924.8457 579.797,924.8307 579.967,924.8307 L583.906,924.8307 L602.678,909.1707 L619.154,924.8307 L694.656,924.8307 L712.139,907.5027 L729.071,924.8307 L733.98,924.8307 C740.012,924.8307 744.902,919.9417 744.902,913.9097 L744.902,886.6077 Z" id="Fill-73" fill="#FFFFFE"></path>
                <path d="M712.1389,907.2529 C707.4149,907.2529 703.1269,909.0439 699.7409,912.4319 C696.3529,915.8159 694.5609,920.1059 694.5609,924.8309 C694.5609,929.5589 696.3539,933.8479 699.7439,937.2339 C703.1279,940.6179 707.4159,942.4099 712.1389,942.4099 C716.8639,942.4099 721.1509,940.6179 724.5389,937.2299 C727.9249,933.8459 729.7169,929.5579 729.7169,924.8309 C729.7169,920.1069 727.9259,915.8199 724.5389,912.4319 C721.1479,909.0429 716.8619,907.2529 712.1389,907.2529 M712.1389,917.2529 C714.1919,917.2529 715.9679,918.0039 717.4669,919.5019 C718.9669,921.0019 719.7169,922.7789 719.7169,924.8309 C719.7169,926.8839 718.9669,928.6599 717.4669,930.1589 C715.9679,931.6589 714.1919,932.4099 712.1389,932.4099 C710.0869,932.4099 708.3109,931.6579 706.8109,930.1589 C705.3109,928.6599 704.5609,926.8839 704.5609,924.8309 C704.5609,922.7789 705.3109,921.0019 706.8109,919.5019 C708.3109,918.0029 710.0869,917.2529 712.1389,917.2529" id="Fill-75" fill="#000105"></path>
                <path d="M601.8088,907.2529 C597.0838,907.2529 592.7968,909.0439 589.4098,912.4319 C586.0208,915.8219 584.2308,920.1089 584.2308,924.8309 C584.2308,929.5589 586.0238,933.8479 589.4138,937.2339 C592.7978,940.6179 597.0858,942.4089 601.8088,942.4089 C606.5338,942.4089 610.8228,940.6179 614.2098,937.2289 C617.5958,933.8439 619.3868,929.5559 619.3868,924.8309 C619.3868,920.1069 617.5958,915.8179 614.2078,912.4309 C610.8188,909.0429 606.5318,907.2529 601.8088,907.2529 M601.8088,917.2529 C603.8618,917.2529 605.6378,918.0039 607.1368,919.5019 C608.6368,921.0019 609.3868,922.7789 609.3868,924.8309 C609.3868,926.8839 608.6368,928.6599 607.1368,930.1589 C605.6378,931.6589 603.8618,932.4089 601.8088,932.4089 C599.7558,932.4089 597.9798,931.6579 596.4808,930.1589 C594.9798,928.6599 594.2308,926.8839 594.2308,924.8309 C594.2308,922.7789 594.9818,921.0029 596.4808,919.5019 C597.9798,918.0029 599.7558,917.2529 601.8088,917.2529" id="Fill-77" fill="#000105"></path>
                <polygon id="Fill-79" fill="#000105" points="112.992 77.256 130.979 77.256 130.979 0.005 112.992 0.005"></polygon>
                <polygon id="Fill-81" fill="#000105" points="58.886 77.256 76.873 77.256 76.873 0.005 58.886 0.005"></polygon>
                <polygon id="Fill-82" fill="#000105" points="4.551 77.256 22.538 77.256 22.538 0.005 4.551 0.005"></polygon>
                <polygon id="Fill-83" fill="#000105" points="337.565 713.824 378.582 713.824 378.582 665.309 337.565 665.309"></polygon>
                <path d="M592.0745,884.6973 C592.0745,882.5293 590.5665,880.8973 588.4945,880.8973 C586.4215,880.8973 584.9135,882.5293 584.9135,884.6973 C584.9135,886.8653 586.4215,888.4973 588.4945,888.4973 C590.5665,888.4973 592.0745,886.8653 592.0745,884.6973 M579.8335,884.7903 C579.8335,879.3913 583.6645,875.2443 588.4995,875.2443 C593.3355,875.2443 597.1655,879.3913 597.1655,884.7903 C597.1655,890.1883 593.3355,894.3363 588.4995,894.3363 C583.6645,894.3363 579.8335,890.1883 579.8335,884.7903" id="Fill-84" fill="#000105"></path>
                <polygon id="Fill-85" fill="#000105" points="618.9436 893.2275 612.7106 893.8095 612.5716 886.1865 608.5626 891.8505 604.1986 885.6685 604.1986 893.6675 598.7446 893.3045 598.7446 876.2135 604.1986 875.8505 608.6416 883.1005 612.4906 876.0825 617.7776 876.2595"></polygon>
                <polygon id="Fill-86" fill="#000105" points="631.4045 888.3525 631.2775 894.1725 620.5155 893.4815 620.2985 876.3115 630.4825 875.4865 630.9705 880.5155 624.4495 880.8325 624.7245 882.7415 629.6335 882.3435 629.9825 886.6605 625.1115 887.1575 625.2605 889.1125"></polygon>
                <path d="M640.6975,894.0488 C635.4015,893.4908 632.2095,889.0498 632.7625,883.7888 C633.3215,878.4778 637.0925,875.1538 642.1275,875.2978 C645.9795,875.4068 648.5105,877.2428 649.7335,879.9028 L645.0815,882.3218 C644.5845,881.2878 643.5275,880.5058 642.0425,880.3498 C639.6215,880.0948 638.2475,881.7578 637.9785,884.3128 C637.7555,886.4318 638.6915,888.9148 641.8065,889.2418 C643.6045,889.4318 644.4835,888.7698 644.8205,887.7948 L641.4625,887.3558 L642.1015,883.5368 L650.2165,884.3908 C649.7235,892.2438 645.8025,894.5858 640.6975,894.0488" id="Fill-87" fill="#000105"></path>
                <path d="M659.6233,887.1279 L658.1773,882.7549 L656.9723,887.4229 L659.6233,887.1279 Z M660.8953,891.0879 L656.0723,891.4399 L655.5373,894.3029 L649.8013,894.4769 L654.1823,876.3769 L660.1953,875.9099 L667.2843,892.5639 L661.6583,893.5649 L660.8953,891.0879 Z" id="Fill-88" fill="#000105"></path>
                <polygon id="Fill-89" fill="#000105" points="665.9465 881.7637 674.1895 881.7637 673.9715 886.4787 665.9465 886.3217"></polygon>
                <path d="M687.4631,888.6748 C687.2451,892.9698 683.9651,894.7708 680.2531,894.5818 C676.5531,894.3958 673.8381,892.9788 672.9011,889.9538 L677.9241,887.2268 C678.2061,888.4628 679.3201,889.3788 680.5141,889.4398 C681.4681,889.4868 682.1301,889.0158 682.1741,888.1418 C682.2211,887.2128 681.6051,886.7828 680.6511,886.7358 L679.7781,886.6908 L677.8951,883.4318 L680.5941,880.5428 L674.8631,880.4358 L674.7041,875.4868 L687.0661,876.5528 L686.8351,881.1108 L683.7731,883.3308 C686.0451,884.1108 687.6011,885.9438 687.4631,888.6748" id="Fill-90" fill="#000105"></path>
                <path d="M595.9446,857.7998 C595.7666,852.3308 588.4646,854.8468 588.4646,854.8468 L588.5256,862.9538 C588.5256,862.9538 596.1576,864.3618 595.9446,857.7998 M603.3406,857.6948 C603.6656,864.6188 598.7746,870.1758 592.0246,870.4928 L580.7386,870.9828 L580.7316,846.4888 L590.8746,846.0128 C597.6246,845.6958 603.0146,850.7698 603.3406,857.6948" id="Fill-91" fill="#000105"></path>
                <path d="M616.3147,861.4668 L614.4197,856.1868 L612.6287,861.5028 L616.3147,861.4668 Z M617.2397,867.5828 L611.0757,867.5078 L610.0567,871.4178 L601.2097,871.5208 L610.8627,845.8548 L618.4537,846.3348 L626.2677,871.8858 L618.4357,871.9628 L617.2397,867.5828 Z" id="Fill-92" fill="#000105"></path>
                <polygon id="Fill-93" fill="#000105" points="634.7024 846.2939 636.0294 870.8899 628.0194 871.3519 627.5114 846.3259"></polygon>
                <polygon id="Fill-94" fill="#000105" points="653.3499 863.6035 652.8899 870.7445 638.0199 871.1885 638.6069 847.0175 647.0049 846.5565 645.5179 863.6035"></polygon>
                <polygon id="Fill-95" fill="#000105" points="664.5051 862.2207 664.8681 872.3567 657.0361 871.6657 657.0361 862.6107 648.9731 848.1687 656.1141 846.3257 660.5891 855.0797 664.4371 846.0057 672.6621 846.9267"></polygon>
                <path d="M667.3879,863.2158 L673.6569,861.8738 C674.1159,863.9778 676.0339,865.1758 678.0629,865.4078 C678.5039,865.4588 678.9629,865.4738 679.3809,865.3228 C679.7999,865.1738 680.1719,864.8298 680.2469,864.3928 C680.3419,863.8358 679.9429,863.3048 679.4739,862.9898 C678.8139,862.5468 678.0439,862.2258 677.3449,861.8428 C673.7699,859.8878 671.1379,857.2028 672.0239,852.9898 C672.8959,848.8438 676.8189,846.3688 681.8549,847.4288 C685.6719,848.2318 688.1749,850.1048 689.7179,853.3108 L683.8839,856.7908 C683.5599,854.9018 681.8179,853.8138 680.5999,853.5578 C679.3819,853.3008 678.7379,853.7498 678.5989,854.4078 C678.3849,855.4278 679.4279,856.0258 681.9019,857.3368 C685.2999,859.1518 688.5969,861.2878 687.5859,866.0938 C686.5889,870.8328 681.3289,873.0078 675.8669,871.8598 C670.7319,870.7788 667.7809,866.9068 667.3879,863.2158" id="Fill-96" fill="#000105"></path>
            </g>
        </g>
    </g>
</svg>