<?xml version="1.0" encoding="utf-8"?><svg xmlns="http://www.w3.org/2000/svg" xmlns:xlink="http://www.w3.org/1999/xlink"><symbol viewBox="0 0 1920 969" id="ic" xmlns="http://www.w3.org/2000/svg"><path xmlns:sketchjs="https://sketch.io/dtd/" sketchjs:tool="rectangle" d="M0 0h1920v969H0z" vector-effect="non-scaling-stroke"/><g sketchjs:uid="1"><g transform="translate(580.348 329)" sketchjs:uid="2" sketchjs:tool="calligraphy"><path d="M14.813 1.411v-.5L32.491 18.59v.5z" sketchjs:uid="3" paint-order="stroke fill markers"/><use xmlns:xlink="http://www.w3.org/1999/xlink" xlink:href="#a" paint-order="stroke fill markers"/><use xlink:href="#a" sketchjs:uid="6" paint-order="stroke fill markers"/><path d="M15.063 1.161h-2.5L30.241 18.84h2.5z" sketchjs:uid="8" paint-order="stroke fill markers"/><path d="M12.813 1.411v-.5L30.491 18.59v.5z" sketchjs:uid="10" paint-order="stroke fill markers"/><path d="M12.99.984l-2.354 2.354 17.678 17.678 2.353-2.354z" sketchjs:uid="12" paint-order="stroke fill markers"/><path d="M10.813 3.411v-.5L28.491 20.59v.5z" sketchjs:uid="14" paint-order="stroke fill markers"/><path d="M10.945 2.95L5.68 11.372 23.358 29.05l5.265-8.424z" sketchjs:uid="16" paint-order="stroke fill markers"/><path d="M5.813 11.411v-.5L23.491 28.59v.5z" sketchjs:uid="18" paint-order="stroke fill markers"/><path d="M5.94 10.946l-4.329 7.37L19.29 35.995l4.328-7.37z" sketchjs:uid="20" paint-order="stroke fill markers"/><path d="M1.847 17.876l-4.143 8.51L15.38 44.064l4.144-8.51z" sketchjs:uid="22" paint-order="stroke fill markers"/><path d="M-2.187 26.411v-.5L15.491 43.59v.5z" sketchjs:uid="24" paint-order="stroke fill markers"/><path d="M-2.108 25.924l-3.798 11.4 17.678 17.678 3.798-11.4z" sketchjs:uid="26" paint-order="stroke fill markers"/><path d="M-5.779 36.842l-2.456 12.565L9.443 67.084l2.456-12.565z" sketchjs:uid="28" paint-order="stroke fill markers"/><path d="M-8.187 49.411v-.5L9.491 66.59v.5z" sketchjs:uid="30" paint-order="stroke fill markers"/><path d="M-8.176 48.911l-.674 15.39L8.828 81.977l.674-15.389z" sketchjs:uid="32" paint-order="stroke fill markers"/><path d="M-8.866 63.802L-7.16 79.41l17.678 17.677L8.812 81.48z" sketchjs:uid="34" paint-order="stroke fill markers"/><path d="M-7.187 79.411v-.5L10.491 96.59v.5z" sketchjs:uid="36" paint-order="stroke fill markers"/><path d="M-7.258 78.921l4.31 14.599 17.678 17.678-4.31-14.599z" sketchjs:uid="38" paint-order="stroke fill markers"/><path d="M-3.122 93.053l3.256 7.163 17.678 17.677-3.257-7.163z" sketchjs:uid="40" paint-order="stroke fill markers"/><path d="M-.1 99.775l4.044 6.6 17.677 17.677-4.043-6.6z" sketchjs:uid="42" paint-order="stroke fill markers"/><path d="M3.813 106.411v-.5l17.678 17.678v.5z" sketchjs:uid="44" paint-order="stroke fill markers"/><path d="M3.652 105.97l5.083 6.025 17.677 17.678-5.083-6.025z" sketchjs:uid="46" paint-order="stroke fill markers"/><path d="M8.39 111.636l5.955 5.448 17.677 17.677-5.955-5.448z" sketchjs:uid="48" paint-order="stroke fill markers"/><path d="M13.958 116.767l13.057 9.542 17.677 17.677-13.056-9.54z" sketchjs:uid="50" paint-order="stroke fill markers"/><path d="M26.813 126.411v-.5l17.678 17.678v.5z" sketchjs:uid="52" paint-order="stroke fill markers"/><path d="M26.599 126.032l16.253 9.777 17.677 17.678-16.253-9.777z" sketchjs:uid="54" paint-order="stroke fill markers"/><path d="M42.412 135.572l8.99 4.345 17.678 17.678-8.99-4.346z" sketchjs:uid="56" paint-order="stroke fill markers"/><path d="M50.945 139.718l9.101 3.534 17.678 17.677-9.102-3.533z" sketchjs:uid="58" paint-order="stroke fill markers"/><path d="M59.813 143.411v-.5l17.678 17.678v.5z" sketchjs:uid="60" paint-order="stroke fill markers"/><path d="M59.572 143.094l9.06 2.516 17.678 17.678-9.06-2.516z" sketchjs:uid="62" paint-order="stroke fill markers"/><path d="M68.146 145.497l9.293 1.75 17.678 17.677-9.293-1.75z" sketchjs:uid="64" paint-order="stroke fill markers"/><path d="M76.945 147.172l18.116 2.017 17.678 17.677-18.116-2.016z" sketchjs:uid="66" paint-order="stroke fill markers"/><path d="M94.813 149.411v-.5l17.678 17.678v.5z" sketchjs:uid="68" paint-order="stroke fill markers"/><path d="M94.563 149.15l17.162.774 17.678 17.678-17.162-.774z" sketchjs:uid="70" paint-order="stroke fill markers"/><path d="M111.226 149.924l16.837-.774 17.677 17.677-16.836.775z" sketchjs:uid="72" paint-order="stroke fill markers"/><path d="M127.813 149.411v-.5l17.678 17.678v.5z" sketchjs:uid="74" paint-order="stroke fill markers"/><path d="M127.565 149.195l16.117-2.227 17.677 17.677-16.116 2.228z" sketchjs:uid="76" paint-order="stroke fill markers"/><path d="M143.193 147.066l14.862-3.97 17.677 17.678-14.862 3.97z" sketchjs:uid="78" paint-order="stroke fill markers"/><path d="M157.813 143.411v-.5l17.678 17.678v.5z" sketchjs:uid="80" paint-order="stroke fill markers"/><path d="M157.587 143.269l10.705-5.097 17.677 17.678-10.704 5.096z" sketchjs:uid="82" paint-order="stroke fill markers"/><path d="M167.861 138.423l9.157-6.405 17.678 17.678-9.157 6.404z" sketchjs:uid="84" paint-order="stroke fill markers"/><path d="M176.813 132.411v-.5l17.678 17.678v.5z" sketchjs:uid="86" paint-order="stroke fill markers"/><path d="M176.635 132.337l6.956-6.846 17.678 17.677-6.957 6.846z" sketchjs:uid="88" paint-order="stroke fill markers"/><path d="M183.267 125.869l5.692-7.91 17.678 17.677-5.693 7.91z" sketchjs:uid="90" paint-order="stroke fill markers"/><path d="M188.813 118.411v-.5l17.678 17.678v.5z" sketchjs:uid="92" paint-order="stroke fill markers"/><path d="M188.702 118.385l5.075-10.189 17.677 17.678-5.075 10.189z" sketchjs:uid="94" paint-order="stroke fill markers"/><path d="M193.592 108.66l3.294-10.738 17.678 17.678-3.294 10.737z" sketchjs:uid="96" paint-order="stroke fill markers"/><path d="M196.813 98.411v-.5l17.678 17.678v.5z" sketchjs:uid="98" paint-order="stroke fill markers"/><path d="M196.8 98.41l.443-9.147 17.678 17.678-.442 9.148z" sketchjs:uid="100" paint-order="stroke fill markers"/><path d="M197.243 89.763l-.443-8.852 17.678 17.678.443 8.851z" sketchjs:uid="102" paint-order="stroke fill markers"/><path d="M196.813 81.411v-.5l17.678 17.678v.5z" sketchjs:uid="104" paint-order="stroke fill markers"/><path d="M196.813 81.411v-14.5l17.678 17.678v14.5z" sketchjs:uid="106" paint-order="stroke fill markers"/><path d="M196.813 67.411v-.5l17.678 17.678v.5z" sketchjs:uid="108" paint-order="stroke fill markers"/><path d="M196.832 67.41l-1.038-13.498L213.47 71.59l1.039 13.498z" sketchjs:uid="110" paint-order="stroke fill markers"/><path d="M195.813 54.411v-.5l17.678 17.678v.5z" sketchjs:uid="112" paint-order="stroke fill markers"/><path d="M195.813 54.411v-11.5l17.678 17.678v11.5z" sketchjs:uid="114" paint-order="stroke fill markers"/><path d="M195.813 43.411v-.5l17.678 17.678v.5z" sketchjs:uid="116" paint-order="stroke fill markers"/><path d="M195.813 43.411v-10.5l17.678 17.678v10.5z" sketchjs:uid="118" paint-order="stroke fill markers"/><path d="M195.813 33.411v-.5l17.678 17.678v.5z" sketchjs:uid="120" paint-order="stroke fill markers"/><path d="M195.813 33.411v-9.5l17.678 17.678v9.5z" sketchjs:uid="122" paint-order="stroke fill markers"/><path d="M195.813 24.411v-.5l17.678 17.678v.5z" sketchjs:uid="124" paint-order="stroke fill markers"/><path d="M195.813 24.411v-8.5l17.678 17.678v8.5z" sketchjs:uid="126" paint-order="stroke fill markers"/><path d="M195.813 16.411v-.5l17.678 17.678v.5z" sketchjs:uid="128" paint-order="stroke fill markers"/><path d="M195.813 16.411v-9.5l17.678 17.678v9.5z" sketchjs:uid="130" paint-order="stroke fill markers"/><path d="M195.813 7.411v-.5l17.678 17.678v.5z" sketchjs:uid="132" paint-order="stroke fill markers"/><path d="M195.782 7.41l1.062-8.497 17.678 17.678-1.062 8.496z" sketchjs:uid="134" paint-order="stroke fill markers"/><path d="M196.813-.589v-.5l17.678 17.678v.5z" sketchjs:uid="136" paint-order="stroke fill markers"/><path d="M196.813-.589v-6.5l17.678 17.678v6.5z" sketchjs:uid="138" paint-order="stroke fill markers"/><path d="M196.813-6.589v-.5l17.678 17.678v.5z" sketchjs:uid="140" paint-order="stroke fill markers"/><path d="M196.813-6.589v-1.5L214.491 9.59v1.5z" sketchjs:uid="142" paint-order="stroke fill markers"/><path d="M196.813-7.589v-.5L214.491 9.59v.5z" sketchjs:uid="144" paint-order="stroke fill markers"/><path d="M196.813-7.589v-1.5L214.491 8.59v1.5z" sketchjs:uid="146" paint-order="stroke fill markers"/><path d="M196.813-8.589v-.5L214.491 8.59v.5z" sketchjs:uid="148" paint-order="stroke fill markers"/></g></g><g sketchjs:uid="1"><g transform="translate(418 187)" sketchjs:uid="2" sketchjs:tool="calligraphy"><path d="M-8.839 95.411v-.5L8.84 112.59v.5z" sketchjs:uid="3" paint-order="stroke fill markers"/><use xlink:href="#b" paint-order="stroke fill markers"/><use xlink:href="#b" sketchjs:uid="6" paint-order="stroke fill markers"/><path d="M-8.874 95.409l1.07-7.495L9.875 105.59l-1.07 7.495z" sketchjs:uid="8" paint-order="stroke fill markers"/><path d="M-7.839 88.411v-.5L9.84 105.59v.5z" sketchjs:uid="10" paint-order="stroke fill markers"/><path d="M-7.989 88.361l3.3-4.4L12.99 101.64l-3.3 4.4z" sketchjs:uid="12" paint-order="stroke fill markers"/><path d="M-4.839 84.411v-.5L12.84 101.59v.5z" sketchjs:uid="14" paint-order="stroke fill markers"/><path d="M-5.039 84.311l4.4-3.3L17.04 98.69l-4.4 3.3z" sketchjs:uid="16" paint-order="stroke fill markers"/><path d="M-.839 81.411v-.5L16.84 98.59v.5z" sketchjs:uid="18" paint-order="stroke fill markers"/><path d="M-1.053 81.29l5.429-3.257L22.053 95.71l-5.429 3.257z" sketchjs:uid="20" paint-order="stroke fill markers"/><path d="M4.161 78.411v-.5L21.84 95.59v.5z" sketchjs:uid="22" paint-order="stroke fill markers"/><path d="M3.929 78.254l5.464-2.186 17.678 17.678-5.464 2.186z" sketchjs:uid="24" paint-order="stroke fill markers"/><path d="M9.161 76.411v-.5L26.84 93.59v.5z" sketchjs:uid="26" paint-order="stroke fill markers"/><path d="M8.914 76.197l7.495-1.071 17.677 17.677-7.495 1.071z" sketchjs:uid="28" paint-order="stroke fill markers"/><path d="M16.161 75.411v-.5L33.84 92.59v.5z" sketchjs:uid="30" paint-order="stroke fill markers"/><path d="M15.911 75.161h6.5L40.09 92.84h-6.5z" sketchjs:uid="32" paint-order="stroke fill markers"/><path d="M22.161 75.411v-.5L39.84 92.59v.5z" sketchjs:uid="34" paint-order="stroke fill markers"/><path d="M21.911 75.161h6.5L46.09 92.84h-6.5z" sketchjs:uid="36" paint-order="stroke fill markers"/><path d="M28.161 75.411v-.5L45.84 92.59v.5z" sketchjs:uid="38" paint-order="stroke fill markers"/><path d="M27.911 75.161h8.5L54.09 92.84h-8.5z" sketchjs:uid="40" paint-order="stroke fill markers"/><path d="M36.161 75.411v-.5L53.84 92.59v.5z" sketchjs:uid="42" paint-order="stroke fill markers"/><path d="M35.911 75.161h6.5L60.09 92.84h-6.5z" sketchjs:uid="44" paint-order="stroke fill markers"/><path d="M42.161 75.411v-.5L59.84 92.59v.5z" sketchjs:uid="46" paint-order="stroke fill markers"/><path d="M41.914 75.126l7.495 1.07 17.677 17.678-7.495-1.07z" sketchjs:uid="48" paint-order="stroke fill markers"/><path d="M49.161 76.411v-.5L66.84 93.59v.5z" sketchjs:uid="50" paint-order="stroke fill markers"/><path d="M48.929 76.068l10.464 4.186 17.678 17.678-10.464-4.186z" sketchjs:uid="52" paint-order="stroke fill markers"/><path d="M59.161 80.411v-.5L76.84 97.59v.5z" sketchjs:uid="54" paint-order="stroke fill markers"/><path d="M58.922 80.088L72.4 84.235l17.678 17.677L76.6 97.765z" sketchjs:uid="56" paint-order="stroke fill markers"/><path d="M72.161 84.411v-.5L89.84 101.59v.5z" sketchjs:uid="58" paint-order="stroke fill markers"/><path d="M71.927 84.073l16.468 6.176 17.678 17.678-16.468-6.176z" sketchjs:uid="60" paint-order="stroke fill markers"/><path d="M88.161 90.411v-.5l17.678 17.678v.5z" sketchjs:uid="62" paint-order="stroke fill markers"/><path d="M87.923 90.086l19.477 6.15 17.677 17.678-19.477-6.15z" sketchjs:uid="64" paint-order="stroke fill markers"/><path d="M107.161 96.411v-.5l17.678 17.678v.5z" sketchjs:uid="66" paint-order="stroke fill markers"/><path d="M106.915 96.118l17.492 3.087 17.678 17.677-17.492-3.087z" sketchjs:uid="68" paint-order="stroke fill markers"/><path d="M124.161 99.411v-.5l17.678 17.678v.5z" sketchjs:uid="70" paint-order="stroke fill markers"/><path d="M123.917 99.107l7.98 1.78 17.678 17.678-7.98-1.78z" sketchjs:uid="72" paint-order="stroke fill markers"/><path d="M131.407 100.79l8 1.415 17.678 17.677-8-1.415z" sketchjs:uid="74" paint-order="stroke fill markers"/><path d="M139.161 102.411v-.5l17.678 17.678v.5z" sketchjs:uid="76" paint-order="stroke fill markers"/><path d="M138.911 102.155l9.027.215 17.678 17.678-9.027-.215z" sketchjs:uid="78" paint-order="stroke fill markers"/><path d="M147.438 102.37l8.973-.215 17.678 17.678-8.973.215z" sketchjs:uid="80" paint-order="stroke fill markers"/><path d="M156.161 102.411v-.5l17.678 17.678v.5z" sketchjs:uid="82" paint-order="stroke fill markers"/><path d="M155.911 102.151l7.713.306 17.678 17.677-7.713-.305z" sketchjs:uid="84" paint-order="stroke fill markers"/><path d="M163.125 102.457l7.286-.306 17.678 17.677-7.286.307z" sketchjs:uid="86" paint-order="stroke fill markers"/><path d="M170.161 102.411v-.5l17.678 17.678v.5z" sketchjs:uid="88" paint-order="stroke fill markers"/><path d="M169.922 102.233l6.041-1.82 17.678 17.677-6.042 1.821z" sketchjs:uid="90" paint-order="stroke fill markers"/><path d="M175.494 100.583l5.897-2.52 17.678 17.678-5.897 2.52z" sketchjs:uid="92" paint-order="stroke fill markers"/><path d="M181.161 98.411v-.5l17.678 17.678v.5z" sketchjs:uid="94" paint-order="stroke fill markers"/><path d="M180.934 98.266l13.454-6.21 17.678 17.678-13.454 6.21z" sketchjs:uid="96" paint-order="stroke fill markers"/><path d="M194.161 92.411v-.5l17.678 17.678v.5z" sketchjs:uid="98" paint-order="stroke fill markers"/><path d="M193.938 92.273l10.447-5.224 17.677 17.678-10.447 5.224z" sketchjs:uid="100" paint-order="stroke fill markers"/><path d="M204.161 87.411v-.5l17.678 17.678v.5z" sketchjs:uid="102" paint-order="stroke fill markers"/><path d="M203.95 87.294l8.423-5.265 17.678 17.677-8.424 5.265z" sketchjs:uid="104" paint-order="stroke fill markers"/><path d="M212.161 82.411v-.5L229.84 99.59v.5z" sketchjs:uid="106" paint-order="stroke fill markers"/><path d="M211.974 82.327l9.374-8.332 17.678 17.678-9.374 8.332z" sketchjs:uid="108" paint-order="stroke fill markers"/><path d="M221.161 74.411v-.5L238.84 91.59v.5z" sketchjs:uid="110" paint-order="stroke fill markers"/><path d="M220.997 74.35l7.329-8.377 17.677 17.678-7.329 8.376z" sketchjs:uid="112" paint-order="stroke fill markers"/><path d="M228.161 66.411v-.5L245.84 83.59v.5z" sketchjs:uid="114" paint-order="stroke fill markers"/><path d="M227.971 66.324l7.38-6.326 17.678 17.678-7.38 6.326z" sketchjs:uid="116" paint-order="stroke fill markers"/><path d="M235.161 60.411v-.5L252.84 77.59v.5z" sketchjs:uid="118" paint-order="stroke fill markers"/><path d="M234.984 60.338l7.354-7.354 17.678 17.678-7.354 7.354z" sketchjs:uid="120" paint-order="stroke fill markers"/><path d="M242.161 53.411v-.5L259.84 70.59v.5z" sketchjs:uid="122" paint-order="stroke fill markers"/><path d="M241.964 53.315l9.395-7.307 17.677 17.677-9.395 7.307z" sketchjs:uid="124" paint-order="stroke fill markers"/><path d="M251.161 46.411v-.5L268.84 63.59v.5z" sketchjs:uid="126" paint-order="stroke fill markers"/><path d="M250.943 46.283l9.437-5.243 17.677 17.677-9.437 5.243z" sketchjs:uid="128" paint-order="stroke fill markers"/><path d="M260.161 41.411v-.5L277.84 58.59v.5z" sketchjs:uid="130" paint-order="stroke fill markers"/><path d="M259.938 41.273l12.447-6.224 17.677 17.678-12.447 6.224z" sketchjs:uid="132" paint-order="stroke fill markers"/><path d="M272.161 35.411v-.5L289.84 52.59v.5z" sketchjs:uid="134" paint-order="stroke fill markers"/><path d="M271.942 35.28l11.439-6.239 17.677 17.678-11.439 6.24z" sketchjs:uid="136" paint-order="stroke fill markers"/><path d="M283.161 29.411v-.5L300.84 46.59v.5z" sketchjs:uid="138" paint-order="stroke fill markers"/><path d="M282.924 29.24l7.267-2.388 17.678 17.678-7.268 2.387z" sketchjs:uid="140" paint-order="stroke fill markers"/><path d="M289.71 26.99l7.694-1.888 17.678 17.677-7.694 1.889z" sketchjs:uid="142" paint-order="stroke fill markers"/><path d="M297.161 25.411v-.5L314.84 42.59v.5z" sketchjs:uid="144" paint-order="stroke fill markers"/><path d="M296.915 25.207l16.492-3.092 17.678 17.678-16.492 3.092z" sketchjs:uid="146" paint-order="stroke fill markers"/><path d="M313.161 22.411v-.5L330.84 39.59v.5z" sketchjs:uid="148" paint-order="stroke fill markers"/><path d="M312.912 22.176l17.499-1.03 17.677 17.678-17.499 1.03z" sketchjs:uid="150" paint-order="stroke fill markers"/><path d="M330.161 21.411v-.5L347.84 38.59v.5z" sketchjs:uid="152" paint-order="stroke fill markers"/><path d="M329.911 21.161h13.5L361.09 38.84h-13.5z" sketchjs:uid="154" paint-order="stroke fill markers"/><path d="M343.161 21.411v-.5L360.84 38.59v.5z" sketchjs:uid="156" paint-order="stroke fill markers"/><path d="M342.911 21.161h12.5L373.09 38.84h-12.5z" sketchjs:uid="158" paint-order="stroke fill markers"/><path d="M355.161 21.411v-.5L372.84 38.59v.5z" sketchjs:uid="160" paint-order="stroke fill markers"/><path d="M354.919 21.1l12.485 3.122 17.677 17.677-12.485-3.12z" sketchjs:uid="162" paint-order="stroke fill markers"/><path d="M367.161 24.411v-.5L384.84 41.59v.5z" sketchjs:uid="164" paint-order="stroke fill markers"/><path d="M366.926 24.077l14.47 5.168 17.678 17.678-14.47-5.168z" sketchjs:uid="166" paint-order="stroke fill markers"/><path d="M381.161 29.411v-.5L398.84 46.59v.5z" sketchjs:uid="168" paint-order="stroke fill markers"/><path d="M380.927 29.075l19.469 7.173 17.677 17.677-19.469-7.173z" sketchjs:uid="170" paint-order="stroke fill markers"/><path d="M400.161 36.411v-.5L417.84 53.59v.5z" sketchjs:uid="172" paint-order="stroke fill markers"/><path d="M399.921 36.09l17.48 5.142 17.678 17.677-17.48-5.14z" sketchjs:uid="174" paint-order="stroke fill markers"/><path d="M417.161 41.411v-.5L434.84 58.59v.5z" sketchjs:uid="176" paint-order="stroke fill markers"/><path d="M416.922 41.09l20.479 6.143 17.677 17.678-20.479-6.144z" sketchjs:uid="178" paint-order="stroke fill markers"/><path d="M437.161 47.411v-.5L454.84 64.59v.5z" sketchjs:uid="180" paint-order="stroke fill markers"/><path d="M436.92 47.094l25.482 7.135 17.678 17.677-25.482-7.135z" sketchjs:uid="182" paint-order="stroke fill markers"/><path d="M462.161 54.411v-.5L479.84 71.59v.5z" sketchjs:uid="184" paint-order="stroke fill markers"/><path d="M461.916 54.11l24.49 5.102 17.678 17.678-24.49-5.102z" sketchjs:uid="186" paint-order="stroke fill markers"/><path d="M486.161 59.411v-.5L503.84 76.59v.5z" sketchjs:uid="188" paint-order="stroke fill markers"/><path d="M485.914 59.125l27.494 4.073 17.678 17.677-27.494-4.073z" sketchjs:uid="190" paint-order="stroke fill markers"/><path d="M513.161 63.411v-.5L530.84 80.59v.5z" sketchjs:uid="192" paint-order="stroke fill markers"/><path d="M512.912 63.148l19.499 1.026 17.677 17.678-19.499-1.026z" sketchjs:uid="194" paint-order="stroke fill markers"/><path d="M532.161 64.411v-.5L549.84 81.59v.5z" sketchjs:uid="196" paint-order="stroke fill markers"/><path d="M531.911 64.161h22.5L572.09 81.84h-22.5z" sketchjs:uid="198" paint-order="stroke fill markers"/><path d="M554.161 64.411v-.5L571.84 81.59v.5z" sketchjs:uid="200" paint-order="stroke fill markers"/><path d="M553.911 64.154l9.989.28 17.677 17.678-9.988-.28z" sketchjs:uid="202" paint-order="stroke fill markers"/><path d="M563.4 64.434l10.011-.28 17.678 17.678-10.012.28z" sketchjs:uid="204" paint-order="stroke fill markers"/><path d="M573.161 64.411v-.5L590.84 81.59v.5z" sketchjs:uid="206" paint-order="stroke fill markers"/><path d="M572.915 64.205l11.92-2.129 17.677 17.678-11.92 2.129z" sketchjs:uid="208" paint-order="stroke fill markers"/><path d="M584.346 62.182l12.057-3.083 17.678 17.678-12.057 3.083z" sketchjs:uid="210" paint-order="stroke fill markers"/><path d="M596.161 59.411v-.5L613.84 76.59v.5z" sketchjs:uid="212" paint-order="stroke fill markers"/><path d="M595.92 59.23l11.572-3.285 17.678 17.678-11.572 3.284z" sketchjs:uid="214" paint-order="stroke fill markers"/><path d="M607.016 56.097l11.38-4.02 17.679 17.679-11.381 4.018z" sketchjs:uid="216" paint-order="stroke fill markers"/><path d="M618.161 52.411v-.5L635.84 69.59v.5z" sketchjs:uid="218" paint-order="stroke fill markers"/><path d="M617.935 52.268l11.415-5.405 17.678 17.678-11.415 5.405z" sketchjs:uid="220" paint-order="stroke fill markers"/><path d="M628.903 47.086l11.48-6.041 17.677 17.677-11.48 6.042z" sketchjs:uid="222" paint-order="stroke fill markers"/><path d="M640.161 41.411v-.5L657.84 58.59v.5z" sketchjs:uid="224" paint-order="stroke fill markers"/><path d="M639.94 41.277l25.443-13.231 17.678 17.677-25.444 13.231z" sketchjs:uid="226" paint-order="stroke fill markers"/><path d="M665.161 28.411v-.5L682.84 45.59v.5z" sketchjs:uid="228" paint-order="stroke fill markers"/><path d="M664.942 28.28l22.439-12.239 17.677 17.678-22.439 12.24z" sketchjs:uid="230" paint-order="stroke fill markers"/><path d="M687.161 16.411v-.5L704.84 33.59v.5z" sketchjs:uid="232" paint-order="stroke fill markers"/><path d="M686.935 16.269l21.452-10.215 17.678 17.677-21.452 10.215z" sketchjs:uid="234" paint-order="stroke fill markers"/><path d="M708.161 6.411v-.5L725.84 23.59v.5z" sketchjs:uid="236" paint-order="stroke fill markers"/><path d="M707.93 6.256l17.462-7.19 17.678 17.678-17.462 7.19z" sketchjs:uid="238" paint-order="stroke fill markers"/><path d="M725.161-.589v-.5L742.84 16.59v.5z" sketchjs:uid="240" paint-order="stroke fill markers"/><path d="M724.945-.713l12.432-7.252 17.678 17.678-12.432 7.252z" sketchjs:uid="242" paint-order="stroke fill markers"/><path d="M737.161-7.589v-.5L754.84 9.59v.5z" sketchjs:uid="244" paint-order="stroke fill markers"/><path d="M736.924-7.76l3.474-1.158L758.076 8.76l-3.474 1.158z" sketchjs:uid="246" paint-order="stroke fill markers"/><path d="M740.161-8.589v-.5L757.84 8.59v.5z" sketchjs:uid="248" paint-order="stroke fill markers"/><path d="M739.911-8.839h1.5L759.09 8.84h-1.5z" sketchjs:uid="250" paint-order="stroke fill markers"/><path d="M741.161-8.589v-.5L758.84 8.59v.5z" sketchjs:uid="252" paint-order="stroke fill markers"/></g></g><g sketchjs:uid="1"><g transform="translate(342 299)" sketchjs:uid="2" sketchjs:tool="calligraphy"><path d="M-7.601-7.351v-.5L7.6 7.35v.5z" sketchjs:uid="3" paint-order="stroke fill markers"/><use xlink:href="#c" paint-order="stroke fill markers"/><use xlink:href="#c" sketchjs:uid="6" paint-order="stroke fill markers"/><path d="M-7.68-7.839l2.158 6.475L9.68 13.839 7.522 7.364z" sketchjs:uid="8" paint-order="stroke fill markers"/><path d="M-5.601-1.351v-.5L9.6 13.35v.5z" sketchjs:uid="10" paint-order="stroke fill markers"/><path d="M-5.713-1.825l2.223 4.447 15.203 15.203-2.223-4.447z" sketchjs:uid="12" paint-order="stroke fill markers"/><path d="M-3.601 2.649v-.5L11.6 17.35v.5z" sketchjs:uid="14" paint-order="stroke fill markers"/><path d="M-3.68 2.161l1.158 3.475L12.68 20.839l-1.158-3.475z" sketchjs:uid="16" paint-order="stroke fill markers"/><path d="M-2.601 5.649v-.5L12.6 20.35v.5z" sketchjs:uid="18" paint-order="stroke fill markers"/><path d="M-2.68 5.161l1.158 3.475L13.68 23.839l-1.158-3.475z" sketchjs:uid="20" paint-order="stroke fill markers"/><path d="M-1.601 8.649v-.5L13.6 23.35v.5z" sketchjs:uid="22" paint-order="stroke fill markers"/><path d="M-1.751 8.199l3.3 4.4L16.75 27.8l-3.3-4.4z" sketchjs:uid="24" paint-order="stroke fill markers"/><path d="M1.399 12.649v-.5L16.6 27.35v.5z" sketchjs:uid="26" paint-order="stroke fill markers"/><path d="M1.338 12.156l1.121 4.485 15.203 15.203-1.121-4.485z" sketchjs:uid="28" paint-order="stroke fill markers"/><path d="M2.399 16.649v-.5L17.6 31.35v.5z" sketchjs:uid="30" paint-order="stroke fill markers"/><path d="M2.222 16.222l3.353 3.353 15.203 15.203-3.353-3.353z" sketchjs:uid="32" paint-order="stroke fill markers"/><path d="M5.399 19.649v-.5L20.6 34.35v.5z" sketchjs:uid="34" paint-order="stroke fill markers"/><path d="M5.26 19.19l2.277 3.417L22.74 37.809l-2.277-3.416z" sketchjs:uid="36" paint-order="stroke fill markers"/><path d="M7.399 22.649v-.5L22.6 37.35v.5z" sketchjs:uid="38" paint-order="stroke fill markers"/><path d="M7.287 22.175l1.223 2.447 15.203 15.203-1.223-2.447z" sketchjs:uid="40" paint-order="stroke fill markers"/><path d="M8.399 24.649v-.5L23.6 39.35v.5z" sketchjs:uid="42" paint-order="stroke fill markers"/><path d="M8.149 24.399h1.5L24.85 39.6h-1.5z" sketchjs:uid="44" paint-order="stroke fill markers"/><path d="M9.399 24.649v-.5L24.6 39.35v.5z" sketchjs:uid="46" paint-order="stroke fill markers"/><path d="M9.149 24.399h1.5L25.85 39.6h-1.5z" sketchjs:uid="48" paint-order="stroke fill markers"/><path d="M10.399 24.649v-.5L25.6 39.35v.5z" sketchjs:uid="50" paint-order="stroke fill markers"/><path d="M10.15 24.43l8.497-1.062L33.849 38.57l-8.496 1.062z" sketchjs:uid="52" paint-order="stroke fill markers"/><path d="M18.399 23.649v-.5L33.6 38.35v.5z" sketchjs:uid="54" paint-order="stroke fill markers"/><path d="M18.149 23.399h5.5L38.85 38.6h-5.5z" sketchjs:uid="56" paint-order="stroke fill markers"/><path d="M23.399 23.649v-.5L38.6 38.35v.5z" sketchjs:uid="58" paint-order="stroke fill markers"/><path d="M23.161 23.478l6.475-2.158 15.203 15.202-6.475 2.158z" sketchjs:uid="60" paint-order="stroke fill markers"/><path d="M29.399 21.649v-.5L44.6 36.35v.5z" sketchjs:uid="62" paint-order="stroke fill markers"/><path d="M29.149 21.399h8.5L52.85 36.6h-8.5z" sketchjs:uid="64" paint-order="stroke fill markers"/><path d="M37.399 21.649v-.5L52.6 36.35v.5z" sketchjs:uid="66" paint-order="stroke fill markers"/><path d="M37.156 21.46l4.485-1.122 15.203 15.203-4.485 1.121z" sketchjs:uid="68" paint-order="stroke fill markers"/><path d="M41.399 20.649v-.5L56.6 35.35v.5z" sketchjs:uid="70" paint-order="stroke fill markers"/><path d="M41.149 20.399h4.5L60.85 35.6h-4.5z" sketchjs:uid="72" paint-order="stroke fill markers"/><path d="M45.399 20.649v-.5L60.6 35.35v.5z" sketchjs:uid="74" paint-order="stroke fill markers"/><path d="M45.149 20.399h1.5L61.85 35.6h-1.5z" sketchjs:uid="76" paint-order="stroke fill markers"/><path d="M46.399 20.649v-.5L61.6 35.35v.5z" sketchjs:uid="78" paint-order="stroke fill markers"/></g></g><g sketchjs:uid="1"><g transform="translate(477.15 297)" sketchjs:uid="2" sketchjs:tool="calligraphy"><path d="M-6.752 93.649v-.5L8.451 108.35v.5z" sketchjs:uid="3" paint-order="stroke fill markers"/><use xlink:href="#d" paint-order="stroke fill markers"/><use xlink:href="#d" sketchjs:uid="6" paint-order="stroke fill markers"/><path d="M-6.723 93.647L-7.63 85.7l15.203 15.203.906 7.947z" sketchjs:uid="8" paint-order="stroke fill markers"/><path d="M-7.64 86.196l.926-6.045L8.49 95.354l-.925 6.045z" sketchjs:uid="10" paint-order="stroke fill markers"/><path d="M-6.752 80.649v-.5L8.451 95.35v.5z" sketchjs:uid="12" paint-order="stroke fill markers"/><path d="M-6.88 80.613l2.133-3.556 15.203 15.202-2.133 3.557z" sketchjs:uid="14" paint-order="stroke fill markers"/><path d="M-5.024 77.472l2.421-3.274L12.6 89.4l-2.422 3.275z" sketchjs:uid="16" paint-order="stroke fill markers"/><path d="M-2.752 74.649v-.5L12.451 89.35v.5z" sketchjs:uid="18" paint-order="stroke fill markers"/><path d="M-2.863 74.622L.36 68.175l15.203 15.203-3.224 6.447z" sketchjs:uid="20" paint-order="stroke fill markers"/><path d="M.248 68.649v-.5L15.451 83.35v.5z" sketchjs:uid="22" paint-order="stroke fill markers"/><path d="M.17 68.636l1.157-3.475L16.53 80.364l-1.158 3.475z" sketchjs:uid="24" paint-order="stroke fill markers"/><path d="M1.248 65.649v-.5L16.451 80.35v.5z" sketchjs:uid="26" paint-order="stroke fill markers"/><path d="M1.072 65.575l1.353-1.353 15.203 15.203-1.354 1.353z" sketchjs:uid="28" paint-order="stroke fill markers"/><path d="M2.248 64.649v-.5L17.451 79.35v.5z" sketchjs:uid="30" paint-order="stroke fill markers"/><path d="M2.072 64.575l1.353-1.353 15.203 15.203-1.354 1.353z" sketchjs:uid="32" paint-order="stroke fill markers"/><path d="M3.248 63.649v-.5L18.451 78.35v.5z" sketchjs:uid="34" paint-order="stroke fill markers"/><path d="M3.025 63.51l2.447-1.223L20.675 77.49l-2.447 1.223z" sketchjs:uid="36" paint-order="stroke fill markers"/><path d="M5.248 62.649v-.5L20.451 77.35v.5z" sketchjs:uid="38" paint-order="stroke fill markers"/><path d="M5.025 62.51l2.447-1.223L22.675 76.49l-2.447 1.223z" sketchjs:uid="40" paint-order="stroke fill markers"/><path d="M7.248 61.649v-.5L22.451 76.35v.5z" sketchjs:uid="42" paint-order="stroke fill markers"/><path d="M7.025 61.51l2.447-1.223L24.675 75.49l-2.447 1.223z" sketchjs:uid="44" paint-order="stroke fill markers"/><path d="M9.248 60.649v-.5L24.451 75.35v.5z" sketchjs:uid="46" paint-order="stroke fill markers"/><path d="M9.072 60.575l2.353-2.353 15.203 15.203-2.354 2.353z" sketchjs:uid="48" paint-order="stroke fill markers"/><path d="M11.248 58.649v-.5L26.451 73.35v.5z" sketchjs:uid="50" paint-order="stroke fill markers"/><path d="M10.998 58.399h2.5L28.701 73.6h-2.5z" sketchjs:uid="52" paint-order="stroke fill markers"/><path d="M13.248 58.649v-.5L28.451 73.35v.5z" sketchjs:uid="54" paint-order="stroke fill markers"/><path d="M13.248 58.649v-1.5L28.451 72.35v1.5z" sketchjs:uid="56" paint-order="stroke fill markers"/><path d="M13.248 57.649v-.5L28.451 72.35v.5z" sketchjs:uid="58" paint-order="stroke fill markers"/><path d="M13.025 57.51l2.447-1.223L30.675 71.49l-2.447 1.223z" sketchjs:uid="60" paint-order="stroke fill markers"/><path d="M15.248 56.649v-.5L30.451 71.35v.5z" sketchjs:uid="62" paint-order="stroke fill markers"/><path d="M14.998 56.399h2.5L32.701 71.6h-2.5z" sketchjs:uid="64" paint-order="stroke fill markers"/><path d="M17.248 56.649v-.5L32.451 71.35v.5z" sketchjs:uid="66" paint-order="stroke fill markers"/><path d="M17.072 56.575l1.353-1.353 15.203 15.203-1.354 1.353z" sketchjs:uid="68" paint-order="stroke fill markers"/><path d="M18.248 55.649v-.5L33.451 70.35v.5z" sketchjs:uid="70" paint-order="stroke fill markers"/><path d="M18.072 55.575l1.353-1.353 15.203 15.203-1.354 1.353z" sketchjs:uid="72" paint-order="stroke fill markers"/><path d="M19.248 54.649v-.5L34.451 69.35v.5z" sketchjs:uid="74" paint-order="stroke fill markers"/><path d="M19.025 54.51l2.447-1.223L36.675 68.49l-2.447 1.223z" sketchjs:uid="76" paint-order="stroke fill markers"/><path d="M21.248 53.649v-.5L36.451 68.35v.5z" sketchjs:uid="78" paint-order="stroke fill markers"/><path d="M21.025 53.51l2.447-1.223L38.675 67.49l-2.447 1.223z" sketchjs:uid="80" paint-order="stroke fill markers"/><path d="M23.248 52.649v-.5L38.451 67.35v.5z" sketchjs:uid="82" paint-order="stroke fill markers"/><path d="M23.025 52.51l2.447-1.223L40.675 66.49l-2.447 1.223z" sketchjs:uid="84" paint-order="stroke fill markers"/><path d="M25.248 51.649v-.5L40.451 66.35v.5z" sketchjs:uid="86" paint-order="stroke fill markers"/><path d="M25.072 51.575l2.353-2.353 15.203 15.203-2.354 2.353z" sketchjs:uid="88" paint-order="stroke fill markers"/><path d="M27.248 49.649v-.5L42.451 64.35v.5z" sketchjs:uid="90" paint-order="stroke fill markers"/><path d="M27.04 49.537l3.416-2.277L45.66 62.463l-3.416 2.277z" sketchjs:uid="92" paint-order="stroke fill markers"/><path d="M30.248 47.649v-.5L45.451 62.35v.5z" sketchjs:uid="94" paint-order="stroke fill markers"/><path d="M30.011 47.478l3.475-1.158 15.202 15.202-3.474 1.158z" sketchjs:uid="96" paint-order="stroke fill markers"/><path d="M33.248 46.649v-.5L48.451 61.35v.5z" sketchjs:uid="98" paint-order="stroke fill markers"/><path d="M33.072 46.575l1.353-1.353 15.203 15.203-1.354 1.353z" sketchjs:uid="100" paint-order="stroke fill markers"/><path d="M34.248 45.649v-.5L49.451 60.35v.5z" sketchjs:uid="102" paint-order="stroke fill markers"/><path d="M34.04 45.537l3.416-2.277L52.66 58.463l-3.416 2.277z" sketchjs:uid="104" paint-order="stroke fill markers"/><path d="M37.248 43.649v-.5L52.451 58.35v.5z" sketchjs:uid="106" paint-order="stroke fill markers"/><path d="M37.072 43.575l1.353-1.353 15.203 15.203-1.354 1.353z" sketchjs:uid="108" paint-order="stroke fill markers"/><path d="M38.248 42.649v-.5L53.451 57.35v.5z" sketchjs:uid="110" paint-order="stroke fill markers"/><path d="M38.04 42.537l3.416-2.277L56.66 55.463l-3.416 2.277z" sketchjs:uid="112" paint-order="stroke fill markers"/><path d="M41.248 40.649v-.5L56.451 55.35v.5z" sketchjs:uid="114" paint-order="stroke fill markers"/><path d="M41.04 40.537l3.416-2.277L59.66 53.463l-3.416 2.277z" sketchjs:uid="116" paint-order="stroke fill markers"/><path d="M44.248 38.649v-.5L59.451 53.35v.5z" sketchjs:uid="118" paint-order="stroke fill markers"/><path d="M44.072 38.575l2.353-2.353 15.203 15.203-2.354 2.353z" sketchjs:uid="120" paint-order="stroke fill markers"/><path d="M46.248 36.649v-.5L61.451 51.35v.5z" sketchjs:uid="122" paint-order="stroke fill markers"/><path d="M46.04 36.537l3.416-2.277L64.66 49.463l-3.416 2.277z" sketchjs:uid="124" paint-order="stroke fill markers"/><path d="M49.248 34.649v-.5L64.451 49.35v.5z" sketchjs:uid="126" paint-order="stroke fill markers"/><path d="M49.025 34.51l2.447-1.223L66.675 48.49l-2.447 1.223z" sketchjs:uid="128" paint-order="stroke fill markers"/><path d="M51.248 33.649v-.5L66.451 48.35v.5z" sketchjs:uid="130" paint-order="stroke fill markers"/><path d="M51.072 33.575l2.353-2.353 15.203 15.203-2.354 2.353z" sketchjs:uid="132" paint-order="stroke fill markers"/><path d="M53.248 31.649v-.5L68.451 46.35v.5z" sketchjs:uid="134" paint-order="stroke fill markers"/><path d="M53.011 31.478l3.475-1.158 15.202 15.202-3.474 1.158z" sketchjs:uid="136" paint-order="stroke fill markers"/><path d="M56.248 30.649v-.5L71.451 45.35v.5z" sketchjs:uid="138" paint-order="stroke fill markers"/><path d="M56.072 30.575l2.353-2.353 15.203 15.203-2.354 2.353z" sketchjs:uid="140" paint-order="stroke fill markers"/><path d="M58.248 28.649v-.5L73.451 43.35v.5z" sketchjs:uid="142" paint-order="stroke fill markers"/><path d="M58.025 28.51l2.447-1.223L75.675 42.49l-2.447 1.223z" sketchjs:uid="144" paint-order="stroke fill markers"/><path d="M60.248 27.649v-.5L75.451 42.35v.5z" sketchjs:uid="146" paint-order="stroke fill markers"/><path d="M60.025 27.51l2.447-1.223L77.675 41.49l-2.447 1.223z" sketchjs:uid="148" paint-order="stroke fill markers"/><path d="M62.248 26.649v-.5L77.451 41.35v.5z" sketchjs:uid="150" paint-order="stroke fill markers"/><path d="M62.072 26.575l2.353-2.353 15.203 15.203-2.354 2.353z" sketchjs:uid="152" paint-order="stroke fill markers"/><path d="M64.248 24.649v-.5L79.451 39.35v.5z" sketchjs:uid="154" paint-order="stroke fill markers"/><path d="M64.025 24.51l2.447-1.223L81.675 38.49l-2.447 1.223z" sketchjs:uid="156" paint-order="stroke fill markers"/><path d="M66.248 23.649v-.5L81.451 38.35v.5z" sketchjs:uid="158" paint-order="stroke fill markers"/><path d="M66.025 23.51l2.447-1.223L83.675 37.49l-2.447 1.223z" sketchjs:uid="160" paint-order="stroke fill markers"/><path d="M68.248 22.649v-.5L83.451 37.35v.5z" sketchjs:uid="162" paint-order="stroke fill markers"/><path d="M68.025 22.51l4.447-2.223L87.675 35.49l-4.447 2.223z" sketchjs:uid="164" paint-order="stroke fill markers"/><path d="M72.248 20.649v-.5L87.451 35.35v.5z" sketchjs:uid="166" paint-order="stroke fill markers"/><path d="M72.011 20.478l3.475-1.158 15.202 15.202-3.474 1.158z" sketchjs:uid="168" paint-order="stroke fill markers"/><path d="M75.248 19.649v-.5L90.451 34.35v.5z" sketchjs:uid="170" paint-order="stroke fill markers"/><path d="M75.011 19.478l3.475-1.158 15.202 15.202-3.474 1.158z" sketchjs:uid="172" paint-order="stroke fill markers"/><path d="M78.248 18.649v-.5L93.451 33.35v.5z" sketchjs:uid="174" paint-order="stroke fill markers"/><path d="M78.025 18.51l4.447-2.223L97.675 31.49l-4.447 2.223z" sketchjs:uid="176" paint-order="stroke fill markers"/><path d="M82.248 16.649v-.5L97.451 31.35v.5z" sketchjs:uid="178" paint-order="stroke fill markers"/><path d="M81.998 16.399h2.5L99.701 31.6h-2.5z" sketchjs:uid="180" paint-order="stroke fill markers"/><path d="M84.248 16.649v-.5L99.451 31.35v.5z" sketchjs:uid="182" paint-order="stroke fill markers"/><path d="M84.011 16.478l3.475-1.158 15.202 15.202-3.474 1.158z" sketchjs:uid="184" paint-order="stroke fill markers"/><path d="M87.248 15.649v-.5l15.203 15.202v.5z" sketchjs:uid="186" paint-order="stroke fill markers"/><path d="M86.998 15.399h4.5L106.701 30.6h-4.5z" sketchjs:uid="188" paint-order="stroke fill markers"/><path d="M91.248 15.649v-.5l15.203 15.202v.5z" sketchjs:uid="190" paint-order="stroke fill markers"/><path d="M91.025 15.51l2.447-1.223 15.203 15.203-2.447 1.223z" sketchjs:uid="192" paint-order="stroke fill markers"/><path d="M93.248 14.649v-.5l15.203 15.202v.5z" sketchjs:uid="194" paint-order="stroke fill markers"/><path d="M92.998 14.399h3.5L111.701 29.6h-3.5z" sketchjs:uid="196" paint-order="stroke fill markers"/><path d="M96.248 14.649v-.5l15.203 15.202v.5z" sketchjs:uid="198" paint-order="stroke fill markers"/><path d="M95.998 14.399h3.5L114.701 29.6h-3.5z" sketchjs:uid="200" paint-order="stroke fill markers"/><path d="M99.248 14.649v-.5l15.203 15.202v.5z" sketchjs:uid="202" paint-order="stroke fill markers"/><path d="M99.011 14.478l3.475-1.158 15.202 15.202-3.474 1.158z" sketchjs:uid="204" paint-order="stroke fill markers"/><path d="M102.248 13.649v-.5l15.203 15.202v.5z" sketchjs:uid="206" paint-order="stroke fill markers"/><path d="M101.998 13.399h2.5L119.701 28.6h-2.5z" sketchjs:uid="208" paint-order="stroke fill markers"/><path d="M104.248 13.649v-.5l15.203 15.202v.5z" sketchjs:uid="210" paint-order="stroke fill markers"/><path d="M103.998 13.399h4.5L123.701 28.6h-4.5z" sketchjs:uid="212" paint-order="stroke fill markers"/><path d="M108.248 13.649v-.5l15.203 15.202v.5z" sketchjs:uid="214" paint-order="stroke fill markers"/><path d="M107.998 13.399h4.5L127.701 28.6h-4.5z" sketchjs:uid="216" paint-order="stroke fill markers"/><path d="M112.248 13.649v-.5l15.203 15.202v.5z" sketchjs:uid="218" paint-order="stroke fill markers"/><path d="M111.998 13.399h4.5L131.701 28.6h-4.5z" sketchjs:uid="220" paint-order="stroke fill markers"/><path d="M116.248 13.649v-.5l15.203 15.202v.5z" sketchjs:uid="222" paint-order="stroke fill markers"/><path d="M116.003 13.35l5.49 1.098 15.203 15.202-5.49-1.098z" sketchjs:uid="224" paint-order="stroke fill markers"/><path d="M121.248 14.649v-.5l15.203 15.202v.5z" sketchjs:uid="226" paint-order="stroke fill markers"/><path d="M121.006 14.338l4.485 1.121 15.203 15.203-4.485-1.121z" sketchjs:uid="228" paint-order="stroke fill markers"/><path d="M125.248 15.649v-.5l15.203 15.202v.5z" sketchjs:uid="230" paint-order="stroke fill markers"/><path d="M125.008 15.33l7.48 2.137 15.204 15.203-7.481-2.137z" sketchjs:uid="232" paint-order="stroke fill markers"/><path d="M132.248 17.649v-.5l15.203 15.202v.5z" sketchjs:uid="234" paint-order="stroke fill markers"/><path d="M132 17.368l8.496 1.062L155.7 33.632l-8.496-1.062z" sketchjs:uid="236" paint-order="stroke fill markers"/><path d="M140.248 18.649v-.5l15.203 15.202v.5z" sketchjs:uid="238" paint-order="stroke fill markers"/><path d="M140.009 18.327l10.479 3.143 15.203 15.203-10.48-3.143z" sketchjs:uid="240" paint-order="stroke fill markers"/><path d="M150.248 21.649v-.5l15.203 15.202v.5z" sketchjs:uid="242" paint-order="stroke fill markers"/><path d="M150.004 21.344l9.488 2.109 15.203 15.203-9.488-2.109z" sketchjs:uid="244" paint-order="stroke fill markers"/><path d="M159.248 23.649v-.5l15.203 15.202v.5z" sketchjs:uid="246" paint-order="stroke fill markers"/><path d="M159.006 23.338l12.485 3.121 15.203 15.203-12.485-3.121z" sketchjs:uid="248" paint-order="stroke fill markers"/><path d="M171.248 26.649v-.5l15.203 15.202v.5z" sketchjs:uid="250" paint-order="stroke fill markers"/><path d="M171.003 26.35l10.49 2.098 15.203 15.202-10.49-2.098z" sketchjs:uid="252" paint-order="stroke fill markers"/><path d="M181.248 28.649v-.5l15.203 15.202v.5z" sketchjs:uid="254" paint-order="stroke fill markers"/><path d="M181.009 28.327l5.908 1.772L202.12 45.3l-5.908-1.771z" sketchjs:uid="256" paint-order="stroke fill markers"/><path d="M186.435 29.967l6.056 1.491 15.203 15.203-6.056-1.491z" sketchjs:uid="258" paint-order="stroke fill markers"/><path d="M192.248 31.649v-.5l15.203 15.202v.5z" sketchjs:uid="260" paint-order="stroke fill markers"/><path d="M191.998 31.39l6.488.212 15.202 15.202-6.487-.21z" sketchjs:uid="262" paint-order="stroke fill markers"/><path d="M197.986 31.602l6.512-.211 15.203 15.202-6.512.211z" sketchjs:uid="264" paint-order="stroke fill markers"/><path d="M204.248 31.649v-.5l15.203 15.202v.5z" sketchjs:uid="266" paint-order="stroke fill markers"/><path d="M203.998 31.399h11.5L230.701 46.6h-11.5z" sketchjs:uid="268" paint-order="stroke fill markers"/><path d="M215.248 31.649v-.5l15.203 15.202v.5z" sketchjs:uid="270" paint-order="stroke fill markers"/><path d="M214.998 31.399h11.5L241.701 46.6h-11.5z" sketchjs:uid="272" paint-order="stroke fill markers"/><path d="M226.248 31.649v-.5l15.203 15.202v.5z" sketchjs:uid="274" paint-order="stroke fill markers"/><path d="M225.999 31.389l6.127.246 15.203 15.203-6.128-.247z" sketchjs:uid="276" paint-order="stroke fill markers"/><path d="M231.626 31.635l5.872-.247 15.203 15.203-5.872.247z" sketchjs:uid="278" paint-order="stroke fill markers"/><path d="M237.248 31.649v-.5l15.203 15.202v.5z" sketchjs:uid="280" paint-order="stroke fill markers"/><path d="M237.01 31.475l4.575-1.478L256.788 45.2l-4.575 1.478z" sketchjs:uid="282" paint-order="stroke fill markers"/><path d="M241.118 30.173l4.36-1.873 15.203 15.203-4.36 1.873z" sketchjs:uid="284" paint-order="stroke fill markers"/><path d="M245.248 28.649v-.5l15.203 15.202v.5z" sketchjs:uid="286" paint-order="stroke fill markers"/><path d="M245.014 28.486l8.468-3.175 15.203 15.203-8.468 3.175z" sketchjs:uid="288" paint-order="stroke fill markers"/><path d="M253.248 25.649v-.5l15.203 15.202v.5z" sketchjs:uid="290" paint-order="stroke fill markers"/><path d="M253.014 25.486l8.468-3.175 15.203 15.203-8.468 3.175z" sketchjs:uid="292" paint-order="stroke fill markers"/><path d="M261.248 22.649v-.5l15.203 15.202v.5z" sketchjs:uid="294" paint-order="stroke fill markers"/><path d="M261.016 22.491l10.464-4.185 15.203 15.203-10.464 4.185z" sketchjs:uid="296" paint-order="stroke fill markers"/><path d="M271.248 18.649v-.5l15.203 15.202v.5z" sketchjs:uid="298" paint-order="stroke fill markers"/><path d="M271.025 18.51l10.447-5.223 15.203 15.203-10.447 5.223z" sketchjs:uid="300" paint-order="stroke fill markers"/><path d="M281.248 13.649v-.5l15.203 15.202v.5z" sketchjs:uid="302" paint-order="stroke fill markers"/><path d="M281.025 13.51l12.447-6.223 15.203 15.203-12.447 6.223z" sketchjs:uid="304" paint-order="stroke fill markers"/><path d="M293.248 7.649v-.5l15.203 15.202v.5z" sketchjs:uid="306" paint-order="stroke fill markers"/><path d="M293.016 7.491l10.464-4.185 15.203 15.203-10.464 4.185z" sketchjs:uid="308" paint-order="stroke fill markers"/><path d="M303.248 3.649v-.5l15.203 15.202v.5z" sketchjs:uid="310" paint-order="stroke fill markers"/><path d="M303.016 3.491l5.464-2.185 15.203 15.203-5.464 2.185z" sketchjs:uid="312" paint-order="stroke fill markers"/><path d="M308.248 1.649v-.5l15.203 15.202v.5z" sketchjs:uid="314" paint-order="stroke fill markers"/><path d="M308.016 1.491l5.464-2.185 15.203 15.203-5.464 2.185z" sketchjs:uid="316" paint-order="stroke fill markers"/><path d="M313.248-.351v-.5l15.203 15.202v.5z" sketchjs:uid="318" paint-order="stroke fill markers"/><path d="M313.025-.49l2.447-1.223 15.203 15.203-2.447 1.223z" sketchjs:uid="320" paint-order="stroke fill markers"/><path d="M315.248-1.351v-.5l15.203 15.202v.5z" sketchjs:uid="322" paint-order="stroke fill markers"/><path d="M315.025-1.49l2.447-1.223 15.203 15.203-2.447 1.223z" sketchjs:uid="324" paint-order="stroke fill markers"/><path d="M317.248-2.351v-.5l15.203 15.202v.5z" sketchjs:uid="326" paint-order="stroke fill markers"/><path d="M317.025-2.49l2.447-1.223 15.203 15.203-2.447 1.223z" sketchjs:uid="328" paint-order="stroke fill markers"/><path d="M319.248-3.351v-.5l15.203 15.202v.5z" sketchjs:uid="330" paint-order="stroke fill markers"/><path d="M319.04-3.463l3.416-2.277L337.66 9.463l-3.416 2.277z" sketchjs:uid="332" paint-order="stroke fill markers"/><path d="M322.248-5.351v-.5L337.451 9.35v.5z" sketchjs:uid="334" paint-order="stroke fill markers"/><path d="M322.011-5.522l3.475-1.158 15.202 15.202-3.474 1.158z" sketchjs:uid="336" paint-order="stroke fill markers"/><path d="M325.248-6.351v-.5L340.451 8.35v.5z" sketchjs:uid="338" paint-order="stroke fill markers"/><path d="M325.248-6.351v-1.5L340.451 7.35v1.5z" sketchjs:uid="340" paint-order="stroke fill markers"/><path d="M325.248-7.351v-.5L340.451 7.35v.5z" sketchjs:uid="342" paint-order="stroke fill markers"/><path d="M324.998-7.601h1.5L341.701 7.6h-1.5z" sketchjs:uid="344" paint-order="stroke fill markers"/><path d="M326.248-7.351v-.5L341.451 7.35v.5z" sketchjs:uid="346" paint-order="stroke fill markers"/></g></g></symbol><symbol viewBox="0 0 242 97" id="l" xmlns="http://www.w3.org/2000/svg"><path d="M108.616 28.216V31H92.36V8.6h15.808v2.784H95.56v6.88h11.232v2.72H95.56v7.232h13.056zm25.95-14.336c2.133 0 3.818.619 5.056 1.856 1.258 1.237 1.888 3.072 1.888 5.504V31h-3.072v-9.408c0-1.643-.384-2.88-1.152-3.712-.747-.832-1.824-1.248-3.232-1.248-1.558 0-2.795.49-3.712 1.472-.918.96-1.376 2.347-1.376 4.16V31h-3.072v-9.408c0-1.643-.384-2.88-1.152-3.712-.747-.832-1.824-1.248-3.232-1.248-1.558 0-2.795.49-3.712 1.472-.918.96-1.376 2.347-1.376 4.16V31h-3.072V14.04h2.944v2.528a5.828 5.828 0 0 1 2.432-1.984c1.002-.47 2.144-.704 3.424-.704 1.322 0 2.496.267 3.52.8a5.561 5.561 0 0 1 2.368 2.336c.64-.981 1.525-1.75 2.656-2.304 1.152-.555 2.442-.832 3.872-.832zm18.772 0c2.347 0 4.139.576 5.376 1.728 1.259 1.152 1.888 2.87 1.888 5.152V31h-2.912v-2.24c-.512.79-1.248 1.397-2.208 1.824-.939.405-2.059.608-3.36.608-1.899 0-3.424-.459-4.576-1.376-1.131-.917-1.696-2.123-1.696-3.616 0-1.493.544-2.688 1.632-3.584 1.088-.917 2.816-1.376 5.184-1.376h4.864v-.608c0-1.323-.384-2.336-1.152-3.04-.768-.704-1.899-1.056-3.392-1.056-1.003 0-1.984.17-2.944.512-.96.32-1.771.757-2.432 1.312l-1.28-2.304c.875-.704 1.92-1.237 3.136-1.6a12.786 12.786 0 0 1 3.872-.576zm-.704 14.944c1.173 0 2.187-.256 3.04-.768a4.572 4.572 0 0 0 1.856-2.24v-2.368h-4.736c-2.603 0-3.904.875-3.904 2.624 0 .853.331 1.525.992 2.016.661.49 1.579.736 2.752.736zm13.653-14.784h3.072V31h-3.072V14.04zm1.536-3.264c-.597 0-1.099-.192-1.504-.576a1.915 1.915 0 0 1-.576-1.408c0-.555.192-1.024.576-1.408.405-.405.907-.608 1.504-.608s1.088.192 1.472.576c.405.363.608.821.608 1.376 0 .576-.203 1.067-.608 1.472-.384.384-.875.576-1.472.576zm7.402-3.52h3.072V31h-3.072V7.256zm-72.849 59c-2.24 0-4.267-.49-6.08-1.472-1.792-1.003-3.2-2.368-4.224-4.096-1.024-1.75-1.536-3.712-1.536-5.888 0-2.176.512-4.128 1.536-5.856 1.024-1.75 2.443-3.115 4.256-4.096 1.813-1.003 3.84-1.504 6.08-1.504 1.749 0 3.349.299 4.8.896a9.667 9.667 0 0 1 3.712 2.592l-2.08 2.016c-1.685-1.77-3.787-2.656-6.304-2.656-1.664 0-3.168.373-4.512 1.12a8.203 8.203 0 0 0-3.168 3.104c-.747 1.301-1.12 2.763-1.12 4.384 0 1.621.373 3.093 1.12 4.416a8.272 8.272 0 0 0 3.168 3.072c1.344.747 2.848 1.12 4.512 1.12 2.496 0 4.597-.896 6.304-2.688l2.08 2.016a9.927 9.927 0 0 1-3.744 2.624c-1.451.597-3.051.896-4.8.896zm19.206-.064c-1.685 0-3.2-.373-4.544-1.12A8.272 8.272 0 0 1 113.87 62c-.746-1.323-1.12-2.816-1.12-4.48 0-1.664.374-3.147 1.12-4.448A7.978 7.978 0 0 1 117.038 50c1.344-.747 2.859-1.12 4.544-1.12 1.686 0 3.19.373 4.512 1.12a7.759 7.759 0 0 1 3.136 3.072c.768 1.301 1.152 2.784 1.152 4.448 0 1.664-.384 3.157-1.152 4.48-.746 1.301-1.792 2.325-3.136 3.072-1.322.747-2.826 1.12-4.512 1.12zm0-2.688c1.088 0 2.059-.245 2.912-.736a5.408 5.408 0 0 0 2.048-2.112c.491-.917.736-1.963.736-3.136s-.245-2.208-.736-3.104a5.139 5.139 0 0 0-2.048-2.112c-.853-.49-1.824-.736-2.912-.736-1.088 0-2.069.245-2.944.736-.853.49-1.536 1.195-2.048 2.112-.49.896-.736 1.93-.736 3.104 0 1.173.246 2.219.736 3.136a5.729 5.729 0 0 0 2.048 2.112c.875.49 1.856.736 2.944.736zm22.105-14.624c2.154 0 3.861.63 5.12 1.888 1.28 1.237 1.92 3.061 1.92 5.472V66h-3.072v-9.408c0-1.643-.395-2.88-1.184-3.712-.79-.832-1.92-1.248-3.392-1.248-1.664 0-2.976.49-3.936 1.472-.96.96-1.44 2.347-1.44 4.16V66h-3.072V49.04h2.944v2.56c.618-.875 1.45-1.547 2.496-2.016 1.066-.47 2.272-.704 3.616-.704zm17.589 17.312a14.6 14.6 0 0 1-4-.544c-1.28-.384-2.283-.864-3.008-1.44l1.28-2.432c.747.533 1.653.96 2.72 1.28 1.067.32 2.144.48 3.232.48 2.688 0 4.032-.768 4.032-2.304 0-.512-.181-.917-.544-1.216-.363-.299-.821-.512-1.376-.64-.533-.15-1.301-.31-2.304-.48-1.365-.213-2.485-.459-3.36-.736a5.169 5.169 0 0 1-2.208-1.408c-.619-.661-.928-1.59-.928-2.784 0-1.536.64-2.763 1.92-3.68 1.28-.939 2.997-1.408 5.152-1.408 1.131 0 2.261.139 3.392.416 1.131.277 2.059.65 2.784 1.12l-1.312 2.432c-1.387-.896-3.019-1.344-4.896-1.344-1.301 0-2.293.213-2.976.64-.683.427-1.024.992-1.024 1.696 0 .555.192.992.576 1.312.384.32.853.555 1.408.704.576.15 1.376.32 2.4.512 1.365.235 2.464.49 3.296.768a4.814 4.814 0 0 1 2.176 1.344c.597.64.896 1.536.896 2.688 0 1.536-.661 2.763-1.984 3.68-1.301.896-3.083 1.344-5.344 1.344zm26.975-17.152V66h-2.912v-2.56c-.618.875-1.44 1.557-2.464 2.048-1.002.47-2.101.704-3.296.704-2.261 0-4.042-.619-5.344-1.856-1.301-1.259-1.952-3.104-1.952-5.536v-9.76h3.072v9.408c0 1.643.395 2.89 1.184 3.744.79.832 1.92 1.248 3.392 1.248 1.622 0 2.902-.49 3.84-1.472.939-.981 1.408-2.368 1.408-4.16V49.04h3.072zm5.849-6.784h3.072V66H194.1V42.256z"/><g clip-path="url(#ba)"><path d="M37.483 8.804A2.8 2.8 0 0 0 34.684 6a2.8 2.8 0 0 0-2.797 2.804 2.8 2.8 0 0 0 2.797 2.803 2.8 2.8 0 0 0 2.797-2.803zm-26.294 8.972a2.8 2.8 0 0 0-2.797-2.804 2.8 2.8 0 0 0-2.798 2.804 2.8 2.8 0 0 0 2.798 2.804 2.8 2.8 0 0 0 2.797-2.804zm9.291 3.889a2.808 2.808 0 0 0-.687-3.905 2.793 2.793 0 0 0-3.895.688 2.808 2.808 0 0 0 .686 3.905c1.266.888 3.01.58 3.896-.688zM48.112 8.804A2.8 2.8 0 0 0 45.315 6a2.8 2.8 0 0 0-2.797 2.804 2.8 2.8 0 0 0 2.797 2.803 2.8 2.8 0 0 0 2.797-2.803z"/><path d="M32.224 8.804H6.714a5.6 5.6 0 0 0-5.595 5.607v44.86c0 3.097 2.505 5.608 5.594 5.608h66.574c3.09 0 5.594-2.511 5.594-5.608v-44.86c0-3.097-2.505-5.607-5.594-5.607h-25.92"/><path d="M8.392 15.533V51.42c0 3.096 2.504 5.607 5.594 5.607h50.91c3.089 0 5.594-2.51 5.594-5.607V25.524c0-4.378-4.78-7.067-8.509-4.787L43.216 32.215a5.583 5.583 0 0 1-5.884-.035l-18.66-11.717"/></g><path d="M1.953 94h2.079V79.174H1.953V94zm5.928 0h2.037v-5.103c0-2.184 1.47-3.906 3.549-3.906 1.7 0 1.995 1.176 1.995 2.667V94h2.037v-6.804c0-2.709-1.134-4.074-3.633-4.074-2.331 0-3.633 1.575-4.032 2.499h-.042s.063-.357.063-.798v-1.449H7.88V94zm13.073 0h1.911v-.861c0-.483-.063-.798-.063-.798h.042c.693 1.197 1.995 1.911 3.381 1.911 2.814 0 4.83-2.184 4.83-5.565 0-3.297-1.785-5.565-4.662-5.565-1.47 0-2.814.735-3.444 1.869h-.042s.084-.378.084-.903v-4.914h-2.037V94zm1.974-5.271c0-2.688 1.47-3.822 3.066-3.822 1.764 0 3.003 1.491 3.003 3.801 0 2.415-1.386 3.78-3.066 3.78-2.016 0-3.003-1.869-3.003-3.759zm10.365-.063c0 3.234 2.562 5.586 5.733 5.586 3.15 0 5.712-2.352 5.712-5.586 0-3.213-2.562-5.544-5.733-5.544-3.15 0-5.712 2.331-5.712 5.544zm2.08 0c0-2.205 1.637-3.78 3.653-3.78 1.995 0 3.654 1.575 3.654 3.78 0 2.226-1.659 3.822-3.654 3.822-2.016 0-3.654-1.596-3.654-3.822zM46.046 94h2.31l2.226-3.549c.168-.252.315-.567.315-.567h.042s.168.315.336.567L53.502 94h2.31l-3.633-5.46 3.423-5.166H53.27l-1.974 3.234c-.147.273-.357.63-.357.63h-.042l-.336-.63-1.974-3.234h-2.331l3.423 5.166L46.047 94zm18.165 0h2.08v-5.481h3.36c2.708 0 4.64-1.89 4.64-4.704s-1.932-4.641-4.64-4.641h-5.44V94zm2.08-7.287V80.98h3.044c1.743 0 2.856 1.071 2.856 2.835 0 1.785-1.113 2.898-2.877 2.898H66.29zm10.698 4.368c0 2.688 1.68 3.024 2.856 3.024.294 0 .525-.042.672-.063v-1.806c-.126.021-.273.021-.357.021-.63 0-1.155-.252-1.155-1.512V79.174H76.99v11.907zm5.136.021c0 1.995 1.701 3.15 3.55 3.15 1.574 0 2.876-.945 3.485-2.163h.042s-.063.357-.063.84V94h1.911v-6.72c0-2.688-1.533-4.158-4.2-4.158-1.49 0-3.108.546-3.969 1.26l.82 1.491c.86-.609 1.931-1.029 2.981-1.029 1.323 0 2.331.588 2.331 2.331v.21h-.546c-2.205 0-6.342.378-6.342 3.717zm2.037-.168c0-1.953 2.814-2.079 4.326-2.079h.525v.399c0 1.575-1.07 3.381-2.856 3.381-1.323 0-1.995-.861-1.995-1.701zm9.647-2.247c0 3.192 2.33 5.565 5.69 5.565 1.659 0 3.276-.672 4.242-1.701l-.819-1.491c-.819.861-2.1 1.428-3.276 1.428-2.205 0-3.759-1.659-3.759-3.822 0-2.163 1.554-3.78 3.697-3.78 1.112 0 2.225.504 2.939 1.218l.966-1.428c-1.008-1.071-2.583-1.554-3.99-1.554-3.338 0-5.69 2.415-5.69 5.565zm11.637 0c0 3.15 2.31 5.565 5.649 5.565 1.47 0 3.087-.567 4.116-1.512l-.861-1.491c-.84.756-1.995 1.239-3.129 1.239-1.911 0-3.549-1.239-3.654-3.528h7.728c.042-.294.084-.588.084-.861 0-2.73-1.596-4.977-4.599-4.977-3.024 0-5.334 2.184-5.334 5.565zm2.184-1.197c.294-1.764 1.533-2.793 3.108-2.793 1.386 0 2.52.966 2.583 2.793h-5.691zM118.25 94h2.037v-4.956c0-1.974 1.176-4.074 3.192-4.074 1.617 0 1.827 1.281 1.827 2.667V94h2.037v-4.956c0-2.037 1.176-4.074 3.15-4.074 1.575 0 1.869 1.176 1.869 2.667V94h2.037v-6.804c0-2.709-1.092-4.074-3.507-4.074-1.722 0-3.192 1.176-3.78 2.415h-.042c-.357-1.596-1.386-2.415-3.171-2.415-1.68 0-3.192 1.26-3.696 2.499h-.042s.063-.357.063-.798v-1.449h-1.974V94zm18.922-5.313c0 3.15 2.31 5.565 5.649 5.565 1.47 0 3.087-.567 4.116-1.512l-.861-1.491c-.84.756-1.995 1.239-3.129 1.239-1.911 0-3.549-1.239-3.654-3.528h7.728c.042-.294.084-.588.084-.861 0-2.73-1.596-4.977-4.599-4.977-3.024 0-5.334 2.184-5.334 5.565zm2.184-1.197c.294-1.764 1.533-2.793 3.108-2.793 1.386 0 2.52.966 2.583 2.793h-5.691zM149.974 94h2.037v-5.103c0-2.184 1.47-3.906 3.549-3.906 1.701 0 1.995 1.176 1.995 2.667V94h2.037v-6.804c0-2.709-1.134-4.074-3.633-4.074-2.331 0-3.633 1.575-4.032 2.499h-.042s.063-.357.063-.798v-1.449h-1.974V94zm13.515-3.885c0 3.549 2.709 3.99 4.074 3.99.315 0 .546-.042.714-.063v-1.806c-.21.042-.336.042-.483.042-.777 0-2.268-.273-2.268-2.394v-4.746h2.562v-1.659h-2.562v-3.024h-1.995v3.024h-1.428v1.659h1.386v4.977zm12.928-8.883h2.1v-2.058h-2.1v2.058zM176.459 94h2.037V83.374h-2.037V94zm4.685-1.302c1.05 1.071 2.625 1.554 4.053 1.554 2.268 0 3.822-1.323 3.822-3.129 0-3.507-5.481-2.898-5.481-4.977 0-.903.777-1.323 1.806-1.323.945 0 2.058.357 2.688.945l.819-1.47c-.924-.84-2.226-1.176-3.444-1.176-2.079 0-3.822 1.05-3.822 3.066 0 3.486 5.46 2.94 5.46 4.977 0 .882-.735 1.386-1.806 1.386-1.113 0-2.331-.462-3.129-1.239l-.966 1.386zM197.53 94h2.037v-5.04c0-2.289 1.491-3.969 3.549-3.969 1.701 0 1.995 1.176 1.995 2.667V94h2.037v-6.804c0-2.709-1.134-4.074-3.633-4.074-2.121 0-3.507 1.428-3.99 2.436h-.042s.084-.378.084-.882v-5.502h-2.037V94zm12.38-5.313c0 3.15 2.31 5.565 5.649 5.565 1.47 0 3.087-.567 4.116-1.512l-.861-1.491c-.84.756-1.995 1.239-3.129 1.239-1.911 0-3.549-1.239-3.654-3.528h7.728c.042-.294.084-.588.084-.861 0-2.73-1.596-4.977-4.599-4.977-3.024 0-5.334 2.184-5.334 5.565zm2.184-1.197c.294-1.764 1.533-2.793 3.108-2.793 1.386 0 2.52.966 2.583 2.793h-5.691zM222.712 94h2.037v-4.41c0-2.058.966-4.326 3.255-4.326.21 0 .504.021.588.042V83.29a4.434 4.434 0 0 0-.546-.042c-1.638 0-2.877 1.281-3.381 2.814h-.042s.063-.336.063-.777v-1.911h-1.974V94zm7.356-5.313c0 3.15 2.31 5.565 5.649 5.565 1.47 0 3.087-.567 4.116-1.512l-.861-1.491c-.84.756-1.995 1.239-3.129 1.239-1.911 0-3.549-1.239-3.654-3.528h7.728c.042-.294.084-.588.084-.861 0-2.73-1.596-4.977-4.599-4.977-3.024 0-5.334 2.184-5.334 5.565zm2.184-1.197c.294-1.764 1.533-2.793 3.108-2.793 1.386 0 2.52.966 2.583 2.793h-5.691z"/><defs><clipPath id="ba"><path transform="translate(0 6)" d="M0 0h80v60H0z"/></clipPath></defs></symbol><symbol viewBox="0 0 242 97" id="lg" xmlns="http://www.w3.org/2000/svg"><path d="M108.616 28.216V31H92.36V8.6h15.808v2.784H95.56v6.88h11.232v2.72H95.56v7.232h13.056zm25.95-14.336c2.133 0 3.818.619 5.056 1.856 1.258 1.237 1.888 3.072 1.888 5.504V31h-3.072v-9.408c0-1.643-.384-2.88-1.152-3.712-.747-.832-1.824-1.248-3.232-1.248-1.558 0-2.795.49-3.712 1.472-.918.96-1.376 2.347-1.376 4.16V31h-3.072v-9.408c0-1.643-.384-2.88-1.152-3.712-.747-.832-1.824-1.248-3.232-1.248-1.558 0-2.795.49-3.712 1.472-.918.96-1.376 2.347-1.376 4.16V31h-3.072V14.04h2.944v2.528a5.828 5.828 0 0 1 2.432-1.984c1.002-.47 2.144-.704 3.424-.704 1.322 0 2.496.267 3.52.8a5.561 5.561 0 0 1 2.368 2.336c.64-.981 1.525-1.75 2.656-2.304 1.152-.555 2.442-.832 3.872-.832zm18.772 0c2.347 0 4.139.576 5.376 1.728 1.259 1.152 1.888 2.87 1.888 5.152V31h-2.912v-2.24c-.512.79-1.248 1.397-2.208 1.824-.939.405-2.059.608-3.36.608-1.899 0-3.424-.459-4.576-1.376-1.131-.917-1.696-2.123-1.696-3.616 0-1.493.544-2.688 1.632-3.584 1.088-.917 2.816-1.376 5.184-1.376h4.864v-.608c0-1.323-.384-2.336-1.152-3.04-.768-.704-1.899-1.056-3.392-1.056-1.003 0-1.984.17-2.944.512-.96.32-1.771.757-2.432 1.312l-1.28-2.304c.875-.704 1.92-1.237 3.136-1.6a12.786 12.786 0 0 1 3.872-.576zm-.704 14.944c1.173 0 2.187-.256 3.04-.768a4.572 4.572 0 0 0 1.856-2.24v-2.368h-4.736c-2.603 0-3.904.875-3.904 2.624 0 .853.331 1.525.992 2.016.661.49 1.579.736 2.752.736zm13.653-14.784h3.072V31h-3.072V14.04zm1.536-3.264c-.597 0-1.099-.192-1.504-.576a1.915 1.915 0 0 1-.576-1.408c0-.555.192-1.024.576-1.408.405-.405.907-.608 1.504-.608s1.088.192 1.472.576c.405.363.608.821.608 1.376 0 .576-.203 1.067-.608 1.472-.384.384-.875.576-1.472.576zm7.402-3.52h3.072V31h-3.072V7.256zm-72.849 59c-2.24 0-4.267-.49-6.08-1.472-1.792-1.003-3.2-2.368-4.224-4.096-1.024-1.75-1.536-3.712-1.536-5.888 0-2.176.512-4.128 1.536-5.856 1.024-1.75 2.443-3.115 4.256-4.096 1.813-1.003 3.84-1.504 6.08-1.504 1.749 0 3.349.299 4.8.896a9.667 9.667 0 0 1 3.712 2.592l-2.08 2.016c-1.685-1.77-3.787-2.656-6.304-2.656-1.664 0-3.168.373-4.512 1.12a8.203 8.203 0 0 0-3.168 3.104c-.747 1.301-1.12 2.763-1.12 4.384 0 1.621.373 3.093 1.12 4.416a8.272 8.272 0 0 0 3.168 3.072c1.344.747 2.848 1.12 4.512 1.12 2.496 0 4.597-.896 6.304-2.688l2.08 2.016a9.927 9.927 0 0 1-3.744 2.624c-1.451.597-3.051.896-4.8.896zm19.206-.064c-1.685 0-3.2-.373-4.544-1.12A8.272 8.272 0 0 1 113.87 62c-.746-1.323-1.12-2.816-1.12-4.48 0-1.664.374-3.147 1.12-4.448A7.978 7.978 0 0 1 117.038 50c1.344-.747 2.859-1.12 4.544-1.12 1.686 0 3.19.373 4.512 1.12a7.759 7.759 0 0 1 3.136 3.072c.768 1.301 1.152 2.784 1.152 4.448 0 1.664-.384 3.157-1.152 4.48-.746 1.301-1.792 2.325-3.136 3.072-1.322.747-2.826 1.12-4.512 1.12zm0-2.688c1.088 0 2.059-.245 2.912-.736a5.408 5.408 0 0 0 2.048-2.112c.491-.917.736-1.963.736-3.136s-.245-2.208-.736-3.104a5.139 5.139 0 0 0-2.048-2.112c-.853-.49-1.824-.736-2.912-.736-1.088 0-2.069.245-2.944.736-.853.49-1.536 1.195-2.048 2.112-.49.896-.736 1.93-.736 3.104 0 1.173.246 2.219.736 3.136a5.729 5.729 0 0 0 2.048 2.112c.875.49 1.856.736 2.944.736zm22.105-14.624c2.154 0 3.861.63 5.12 1.888 1.28 1.237 1.92 3.061 1.92 5.472V66h-3.072v-9.408c0-1.643-.395-2.88-1.184-3.712-.79-.832-1.92-1.248-3.392-1.248-1.664 0-2.976.49-3.936 1.472-.96.96-1.44 2.347-1.44 4.16V66h-3.072V49.04h2.944v2.56c.618-.875 1.45-1.547 2.496-2.016 1.066-.47 2.272-.704 3.616-.704zm17.589 17.312a14.6 14.6 0 0 1-4-.544c-1.28-.384-2.283-.864-3.008-1.44l1.28-2.432c.747.533 1.653.96 2.72 1.28 1.067.32 2.144.48 3.232.48 2.688 0 4.032-.768 4.032-2.304 0-.512-.181-.917-.544-1.216-.363-.299-.821-.512-1.376-.64-.533-.15-1.301-.31-2.304-.48-1.365-.213-2.485-.459-3.36-.736a5.169 5.169 0 0 1-2.208-1.408c-.619-.661-.928-1.59-.928-2.784 0-1.536.64-2.763 1.92-3.68 1.28-.939 2.997-1.408 5.152-1.408 1.131 0 2.261.139 3.392.416 1.131.277 2.059.65 2.784 1.12l-1.312 2.432c-1.387-.896-3.019-1.344-4.896-1.344-1.301 0-2.293.213-2.976.64-.683.427-1.024.992-1.024 1.696 0 .555.192.992.576 1.312.384.32.853.555 1.408.704.576.15 1.376.32 2.4.512 1.365.235 2.464.49 3.296.768a4.814 4.814 0 0 1 2.176 1.344c.597.64.896 1.536.896 2.688 0 1.536-.661 2.763-1.984 3.68-1.301.896-3.083 1.344-5.344 1.344zm26.975-17.152V66h-2.912v-2.56c-.618.875-1.44 1.557-2.464 2.048-1.002.47-2.101.704-3.296.704-2.261 0-4.042-.619-5.344-1.856-1.301-1.259-1.952-3.104-1.952-5.536v-9.76h3.072v9.408c0 1.643.395 2.89 1.184 3.744.79.832 1.92 1.248 3.392 1.248 1.622 0 2.902-.49 3.84-1.472.939-.981 1.408-2.368 1.408-4.16V49.04h3.072zm5.849-6.784h3.072V66H194.1V42.256z"/><g clip-path="url(#ca)"><path d="M37.483 8.804A2.8 2.8 0 0 0 34.684 6a2.8 2.8 0 0 0-2.797 2.804 2.8 2.8 0 0 0 2.797 2.803 2.8 2.8 0 0 0 2.797-2.803zm-26.294 8.972a2.8 2.8 0 0 0-2.797-2.804 2.8 2.8 0 0 0-2.798 2.804 2.8 2.8 0 0 0 2.798 2.804 2.8 2.8 0 0 0 2.797-2.804zm9.291 3.889a2.808 2.808 0 0 0-.687-3.905 2.793 2.793 0 0 0-3.895.688 2.808 2.808 0 0 0 .686 3.905c1.266.888 3.01.58 3.896-.688zM48.112 8.804A2.8 2.8 0 0 0 45.315 6a2.8 2.8 0 0 0-2.797 2.804 2.8 2.8 0 0 0 2.797 2.803 2.8 2.8 0 0 0 2.797-2.803z"/><path d="M32.224 8.804H6.714a5.6 5.6 0 0 0-5.595 5.607v44.86c0 3.097 2.505 5.608 5.594 5.608h66.574c3.09 0 5.594-2.511 5.594-5.608v-44.86c0-3.097-2.505-5.607-5.594-5.607h-25.92"/><path d="M8.392 15.533V51.42c0 3.096 2.504 5.607 5.594 5.607h50.91c3.089 0 5.594-2.51 5.594-5.607V25.524c0-4.378-4.78-7.067-8.509-4.787L43.216 32.215a5.583 5.583 0 0 1-5.884-.035l-18.66-11.717"/></g><path d="M1.953 94h2.079V79.174H1.953V94zm5.928 0h2.037v-5.103c0-2.184 1.47-3.906 3.549-3.906 1.7 0 1.995 1.176 1.995 2.667V94h2.037v-6.804c0-2.709-1.134-4.074-3.633-4.074-2.331 0-3.633 1.575-4.032 2.499h-.042s.063-.357.063-.798v-1.449H7.88V94zm13.073 0h1.911v-.861c0-.483-.063-.798-.063-.798h.042c.693 1.197 1.995 1.911 3.381 1.911 2.814 0 4.83-2.184 4.83-5.565 0-3.297-1.785-5.565-4.662-5.565-1.47 0-2.814.735-3.444 1.869h-.042s.084-.378.084-.903v-4.914h-2.037V94zm1.974-5.271c0-2.688 1.47-3.822 3.066-3.822 1.764 0 3.003 1.491 3.003 3.801 0 2.415-1.386 3.78-3.066 3.78-2.016 0-3.003-1.869-3.003-3.759zm10.365-.063c0 3.234 2.562 5.586 5.733 5.586 3.15 0 5.712-2.352 5.712-5.586 0-3.213-2.562-5.544-5.733-5.544-3.15 0-5.712 2.331-5.712 5.544zm2.08 0c0-2.205 1.637-3.78 3.653-3.78 1.995 0 3.654 1.575 3.654 3.78 0 2.226-1.659 3.822-3.654 3.822-2.016 0-3.654-1.596-3.654-3.822zM46.046 94h2.31l2.226-3.549c.168-.252.315-.567.315-.567h.042s.168.315.336.567L53.502 94h2.31l-3.633-5.46 3.423-5.166H53.27l-1.974 3.234c-.147.273-.357.63-.357.63h-.042l-.336-.63-1.974-3.234h-2.331l3.423 5.166L46.047 94zm18.165 0h2.08v-5.481h3.36c2.708 0 4.64-1.89 4.64-4.704s-1.932-4.641-4.64-4.641h-5.44V94zm2.08-7.287V80.98h3.044c1.743 0 2.856 1.071 2.856 2.835 0 1.785-1.113 2.898-2.877 2.898H66.29zm10.698 4.368c0 2.688 1.68 3.024 2.856 3.024.294 0 .525-.042.672-.063v-1.806c-.126.021-.273.021-.357.021-.63 0-1.155-.252-1.155-1.512V79.174H76.99v11.907zm5.136.021c0 1.995 1.701 3.15 3.55 3.15 1.574 0 2.876-.945 3.485-2.163h.042s-.063.357-.063.84V94h1.911v-6.72c0-2.688-1.533-4.158-4.2-4.158-1.49 0-3.108.546-3.969 1.26l.82 1.491c.86-.609 1.931-1.029 2.981-1.029 1.323 0 2.331.588 2.331 2.331v.21h-.546c-2.205 0-6.342.378-6.342 3.717zm2.037-.168c0-1.953 2.814-2.079 4.326-2.079h.525v.399c0 1.575-1.07 3.381-2.856 3.381-1.323 0-1.995-.861-1.995-1.701zm9.647-2.247c0 3.192 2.33 5.565 5.69 5.565 1.659 0 3.276-.672 4.242-1.701l-.819-1.491c-.819.861-2.1 1.428-3.276 1.428-2.205 0-3.759-1.659-3.759-3.822 0-2.163 1.554-3.78 3.697-3.78 1.112 0 2.225.504 2.939 1.218l.966-1.428c-1.008-1.071-2.583-1.554-3.99-1.554-3.338 0-5.69 2.415-5.69 5.565zm11.637 0c0 3.15 2.31 5.565 5.649 5.565 1.47 0 3.087-.567 4.116-1.512l-.861-1.491c-.84.756-1.995 1.239-3.129 1.239-1.911 0-3.549-1.239-3.654-3.528h7.728c.042-.294.084-.588.084-.861 0-2.73-1.596-4.977-4.599-4.977-3.024 0-5.334 2.184-5.334 5.565zm2.184-1.197c.294-1.764 1.533-2.793 3.108-2.793 1.386 0 2.52.966 2.583 2.793h-5.691zM118.25 94h2.037v-4.956c0-1.974 1.176-4.074 3.192-4.074 1.617 0 1.827 1.281 1.827 2.667V94h2.037v-4.956c0-2.037 1.176-4.074 3.15-4.074 1.575 0 1.869 1.176 1.869 2.667V94h2.037v-6.804c0-2.709-1.092-4.074-3.507-4.074-1.722 0-3.192 1.176-3.78 2.415h-.042c-.357-1.596-1.386-2.415-3.171-2.415-1.68 0-3.192 1.26-3.696 2.499h-.042s.063-.357.063-.798v-1.449h-1.974V94zm18.922-5.313c0 3.15 2.31 5.565 5.649 5.565 1.47 0 3.087-.567 4.116-1.512l-.861-1.491c-.84.756-1.995 1.239-3.129 1.239-1.911 0-3.549-1.239-3.654-3.528h7.728c.042-.294.084-.588.084-.861 0-2.73-1.596-4.977-4.599-4.977-3.024 0-5.334 2.184-5.334 5.565zm2.184-1.197c.294-1.764 1.533-2.793 3.108-2.793 1.386 0 2.52.966 2.583 2.793h-5.691zM149.974 94h2.037v-5.103c0-2.184 1.47-3.906 3.549-3.906 1.701 0 1.995 1.176 1.995 2.667V94h2.037v-6.804c0-2.709-1.134-4.074-3.633-4.074-2.331 0-3.633 1.575-4.032 2.499h-.042s.063-.357.063-.798v-1.449h-1.974V94zm13.515-3.885c0 3.549 2.709 3.99 4.074 3.99.315 0 .546-.042.714-.063v-1.806c-.21.042-.336.042-.483.042-.777 0-2.268-.273-2.268-2.394v-4.746h2.562v-1.659h-2.562v-3.024h-1.995v3.024h-1.428v1.659h1.386v4.977zm12.928-8.883h2.1v-2.058h-2.1v2.058zM176.459 94h2.037V83.374h-2.037V94zm4.685-1.302c1.05 1.071 2.625 1.554 4.053 1.554 2.268 0 3.822-1.323 3.822-3.129 0-3.507-5.481-2.898-5.481-4.977 0-.903.777-1.323 1.806-1.323.945 0 2.058.357 2.688.945l.819-1.47c-.924-.84-2.226-1.176-3.444-1.176-2.079 0-3.822 1.05-3.822 3.066 0 3.486 5.46 2.94 5.46 4.977 0 .882-.735 1.386-1.806 1.386-1.113 0-2.331-.462-3.129-1.239l-.966 1.386zM197.53 94h2.037v-5.04c0-2.289 1.491-3.969 3.549-3.969 1.701 0 1.995 1.176 1.995 2.667V94h2.037v-6.804c0-2.709-1.134-4.074-3.633-4.074-2.121 0-3.507 1.428-3.99 2.436h-.042s.084-.378.084-.882v-5.502h-2.037V94zm12.38-5.313c0 3.15 2.31 5.565 5.649 5.565 1.47 0 3.087-.567 4.116-1.512l-.861-1.491c-.84.756-1.995 1.239-3.129 1.239-1.911 0-3.549-1.239-3.654-3.528h7.728c.042-.294.084-.588.084-.861 0-2.73-1.596-4.977-4.599-4.977-3.024 0-5.334 2.184-5.334 5.565zm2.184-1.197c.294-1.764 1.533-2.793 3.108-2.793 1.386 0 2.52.966 2.583 2.793h-5.691zM222.712 94h2.037v-4.41c0-2.058.966-4.326 3.255-4.326.21 0 .504.021.588.042V83.29a4.434 4.434 0 0 0-.546-.042c-1.638 0-2.877 1.281-3.381 2.814h-.042s.063-.336.063-.777v-1.911h-1.974V94zm7.356-5.313c0 3.15 2.31 5.565 5.649 5.565 1.47 0 3.087-.567 4.116-1.512l-.861-1.491c-.84.756-1.995 1.239-3.129 1.239-1.911 0-3.549-1.239-3.654-3.528h7.728c.042-.294.084-.588.084-.861 0-2.73-1.596-4.977-4.599-4.977-3.024 0-5.334 2.184-5.334 5.565zm2.184-1.197c.294-1.764 1.533-2.793 3.108-2.793 1.386 0 2.52.966 2.583 2.793h-5.691z"/><defs><clipPath id="ca"><path transform="translate(0 6)" d="M0 0h80v60H0z"/></clipPath></defs></symbol></svg>