<?xml version="1.0" encoding="UTF-8"?>
<svg width="210px" height="90px" viewBox="0 0 210 90" version="1.1" xmlns="http://www.w3.org/2000/svg" xmlns:xlink="http://www.w3.org/1999/xlink">
    <!-- Generator: Sketch 55.2 (78181) - https://sketchapp.com -->
    <title>icons/spritesheet</title>
    <desc>Created with Sketch.</desc>
    <g id="icons/spritesheet" stroke="none" stroke-width="1" fill="none" fill-rule="evenodd">
        <g id="icons/white/hamburger" transform="translate(0.000000, 30.000000)">
            <g id="icons/dark/twitter" stroke-width="1">
                <rect id="size" x="0" y="0" width="30" height="30"></rect>
            </g>
            <path d="M4,21.3846154 L27,21.3846154 L27,26 L4.29677419,26 L4,21.3846154 Z M4.1503268,12.6923077 L26.8496732,12.6923077 L27,17.3076923 L4,17.1538462 L4.1503268,12.6923077 Z M4,4 L27,4 L27,8.61538462 L4.30263158,8.61538462 L4,4 Z" id="hamburger" fill="#FFFFFF"></path>
        </g>
        <g id="icons/black/hamburger">
            <g id="icons/dark/twitter" stroke-width="1">
                <rect id="size" x="0" y="0" width="30" height="30"></rect>
            </g>
            <path d="M4,21.3846154 L27,21.3846154 L27,26 L4.29677419,26 L4,21.3846154 Z M4.1503268,12.6923077 L26.8496732,12.6923077 L27,17.3076923 L4,17.1538462 L4.1503268,12.6923077 Z M4,4 L27,4 L27,8.61538462 L4.30263158,8.61538462 L4,4 Z" id="hamburger" fill="#000000"></path>
        </g>
        <g id="icons/green/hamburger" transform="translate(0.000000, 60.000000)">
            <g id="icons/dark/twitter" stroke-width="1">
                <rect id="size" x="0" y="0" width="30" height="30"></rect>
            </g>
            <path d="M4,21.3846154 L27,21.3846154 L27,26 L4.29677419,26 L4,21.3846154 Z M4.1503268,12.6923077 L26.8496732,12.6923077 L27,17.3076923 L4,17.1538462 L4.1503268,12.6923077 Z M4,4 L27,4 L27,8.61538462 L4.30263158,8.61538462 L4,4 Z" id="hamburger" fill="#8EE7D4"></path>
        </g>
        <g id="icons/black/chevron" transform="translate(30.000000, 0.000000)">
            <g id="icons/dark/twitter" stroke-width="1" fill-rule="evenodd">
                <rect id="size" x="0" y="0" width="30" height="30"></rect>
            </g>
            <path d="M6.18658819,21.9395349 L8.96873348,20.293338 L17.215807,15.4515824 C14.1355747,13.7085504 10.5585308,11.6750131 8.96873348,10.706662 L6.18658819,9.06046512 C4.79551555,8.18894912 5.78913887,7.02692779 6.78276218,4.41237979 C7.08084918,3.63769891 7.87574783,4.12187446 8.57128415,4.5092149 C11.8502411,6.44591712 23.8730832,13.32121 24.2705325,13.7085504 C24.4692572,13.9022207 24.6679819,17.0009442 24.2705325,17.2914496 C21.2896626,19.5186571 11.8502411,24.650918 8.57128415,26.4907851 C7.87574783,26.8781255 7.08084918,27.3623011 6.78276218,26.5876202 C5.78913887,23.9730722 4.79551555,22.7142158 6.18658819,21.9395349 Z" id="&gt;" fill="#000000" fill-rule="nonzero" transform="translate(15.000000, 15.500000) rotate(90.000000) translate(-15.000000, -15.500000) "></path>
        </g>
        <g id="icons/green/chevron" transform="translate(30.000000, 60.000000)">
            <g id="icons/dark/twitter" stroke-width="1" fill-rule="evenodd">
                <rect id="size" x="0" y="0" width="30" height="30"></rect>
            </g>
            <path d="M6.18658819,21.9395349 L8.96873348,20.293338 L17.215807,15.4515824 C14.1355747,13.7085504 10.5585308,11.6750131 8.96873348,10.706662 L6.18658819,9.06046512 C4.79551555,8.18894912 5.78913887,7.02692779 6.78276218,4.41237979 C7.08084918,3.63769891 7.87574783,4.12187446 8.57128415,4.5092149 C11.8502411,6.44591712 23.8730832,13.32121 24.2705325,13.7085504 C24.4692572,13.9022207 24.6679819,17.0009442 24.2705325,17.2914496 C21.2896626,19.5186571 11.8502411,24.650918 8.57128415,26.4907851 C7.87574783,26.8781255 7.08084918,27.3623011 6.78276218,26.5876202 C5.78913887,23.9730722 4.79551555,22.7142158 6.18658819,21.9395349 Z" id="&gt;" fill="#8EE7D4" fill-rule="nonzero" transform="translate(15.000000, 15.500000) rotate(90.000000) translate(-15.000000, -15.500000) "></path>
        </g>
        <g id="icons/white/chevron" transform="translate(30.000000, 30.000000)">
            <g id="icons/dark/twitter">
                <rect id="size" x="0" y="0" width="30" height="30"></rect>
                <path d="M6.18658819,21.9395349 L8.96873348,20.293338 L17.215807,15.4515824 C14.1355747,13.7085504 10.5585308,11.6750131 8.96873348,10.706662 L6.18658819,9.06046512 C4.79551555,8.18894912 5.78913887,7.02692779 6.78276218,4.41237979 C7.08084918,3.63769891 7.87574783,4.12187446 8.57128415,4.5092149 C11.8502411,6.44591712 23.8730832,13.32121 24.2705325,13.7085504 C24.4692572,13.9022207 24.6679819,17.0009442 24.2705325,17.2914496 C21.2896626,19.5186571 11.8502411,24.650918 8.57128415,26.4907851 C7.87574783,26.8781255 7.08084918,27.3623011 6.78276218,26.5876202 C5.78913887,23.9730722 4.79551555,22.7142158 6.18658819,21.9395349 Z" id="&gt;" fill="#FFFFFF" fill-rule="nonzero" transform="translate(15.000000, 15.500000) rotate(90.000000) translate(-15.000000, -15.500000) "></path>
            </g>
        </g>
        <g id="icons/black/arrow" transform="translate(60.000000, 0.000000)">
            <g id="icons/dark/twitter">
                <rect id="size" x="0" y="0" width="30" height="30"></rect>
                <path d="M13.3031379,17.3397559 L12.93309,3.87334862 C12.9201949,3.40408373 13.2901557,3.01321583 13.7594206,3.00032074 C13.7672016,3.00010692 13.7749852,3 13.7827692,3 L17.2251948,3 C17.6946369,3 18.0751948,3.38055796 18.0751948,3.85 C18.0751948,3.85519 18.0751473,3.86037989 18.0750522,3.86556901 L17.8321542,17.1245171 C18.4941523,15.9906147 19.0774184,15.0051009 19.459714,14.3881445 L20.8196158,12.1289588 C21.5395638,10.999366 22.4994944,11.806218 24.6593384,12.61307 C25.2992922,12.8551256 24.8993211,13.5006073 24.5793442,14.0654037 C22.9794598,16.7280153 17.29987,26.4909247 16.9798931,26.8136655 C16.8199047,26.9750359 14.2600896,27.1364063 14.0201069,26.8136655 C12.1802398,24.3931095 7.94054601,16.7280153 6.42065579,14.0654037 C6.1006789,13.5006073 5.70070779,12.8551256 6.34066157,12.61307 C8.50050557,11.806218 9.54043045,10.999366 10.1803842,12.1289588 L11.540286,14.3881445 L13.3031379,17.3397559 Z" id="&gt;-2" fill="#000000" fill-rule="nonzero"></path>
            </g>
        </g>
        <g id="icons/green/arrow" transform="translate(60.000000, 60.000000)">
            <g id="icons/dark/twitter">
                <rect id="size" x="0" y="0" width="30" height="30"></rect>
                <path d="M13.3031379,17.3397559 L12.93309,3.87334862 C12.9201949,3.40408373 13.2901557,3.01321583 13.7594206,3.00032074 C13.7672016,3.00010692 13.7749852,3 13.7827692,3 L17.2251948,3 C17.6946369,3 18.0751948,3.38055796 18.0751948,3.85 C18.0751948,3.85519 18.0751473,3.86037989 18.0750522,3.86556901 L17.8321542,17.1245171 C18.4941523,15.9906147 19.0774184,15.0051009 19.459714,14.3881445 L20.8196158,12.1289588 C21.5395638,10.999366 22.4994944,11.806218 24.6593384,12.61307 C25.2992922,12.8551256 24.8993211,13.5006073 24.5793442,14.0654037 C22.9794598,16.7280153 17.29987,26.4909247 16.9798931,26.8136655 C16.8199047,26.9750359 14.2600896,27.1364063 14.0201069,26.8136655 C12.1802398,24.3931095 7.94054601,16.7280153 6.42065579,14.0654037 C6.1006789,13.5006073 5.70070779,12.8551256 6.34066157,12.61307 C8.50050557,11.806218 9.54043045,10.999366 10.1803842,12.1289588 L11.540286,14.3881445 L13.3031379,17.3397559 Z" id="&gt;-2" fill="#8EE7D4" fill-rule="nonzero"></path>
            </g>
        </g>
        <g id="icons/white/arrow" transform="translate(60.000000, 30.000000)">
            <rect id="size" x="0" y="0" width="30" height="30"></rect>
            <path d="M13.3031379,17.3397559 L12.93309,3.87334862 C12.9201949,3.40408373 13.2901557,3.01321583 13.7594206,3.00032074 C13.7672016,3.00010692 13.7749852,3 13.7827692,3 L17.2251948,3 C17.6946369,3 18.0751948,3.38055796 18.0751948,3.85 C18.0751948,3.85519 18.0751473,3.86037989 18.0750522,3.86556901 L17.8321542,17.1245171 C18.4941523,15.9906147 19.0774184,15.0051009 19.459714,14.3881445 L20.8196158,12.1289588 C21.5395638,10.999366 22.4994944,11.806218 24.6593384,12.61307 C25.2992922,12.8551256 24.8993211,13.5006073 24.5793442,14.0654037 C22.9794598,16.7280153 17.29987,26.4909247 16.9798931,26.8136655 C16.8199047,26.9750359 14.2600896,27.1364063 14.0201069,26.8136655 C12.1802398,24.3931095 7.94054601,16.7280153 6.42065579,14.0654037 C6.1006789,13.5006073 5.70070779,12.8551256 6.34066157,12.61307 C8.50050557,11.806218 9.54043045,10.999366 10.1803842,12.1289588 L11.540286,14.3881445 L13.3031379,17.3397559 Z" id="&gt;-2" fill="#FFFFFF" fill-rule="nonzero"></path>
        </g>
        <g id="icons/black/linkedin" transform="translate(90.000000, 0.000000)">
            <g id="black/linkedin">
                <rect id="size" x="0" y="0" width="30" height="30"></rect>
                <path d="M5.5,24.5 L9.72,24.5 L9.72,11.83 L5.5,11.83 L5.5,24.5 Z M7.62,5.5 C7.04943464,5.46477475 6.49106665,5.6753844 6.0858934,6.07864645 C5.68072015,6.48190851 5.46747283,7.03927447 5.5,7.61 C5.46868794,8.17160436 5.67531038,8.72043403 6.06921731,9.12195269 C6.46312423,9.52347134 7.00789927,9.7405589 7.57,9.72 L7.57,9.72 C8.14056536,9.75522525 8.69893335,9.5446156 9.1041066,9.14135355 C9.50927985,8.73809149 9.72252717,8.18072553 9.69,7.61 C9.72131206,7.04839564 9.51468962,6.49956597 9.12078269,6.09804731 C8.72687577,5.69652866 8.18210073,5.4794411 7.62,5.5 Z M24.5,17.4 L24.5,24.5 L20.35,24.5 L20.35,17.88 C20.35,16.22 19.75,15.08 18.25,15.08 C17.2926127,15.0837964 16.44053,15.6878551 16.12,16.59 C16.0120117,16.9118351 15.964545,17.2508828 15.98,17.59 L15.98,24.5 L11.83,24.5 C11.83,24.5 11.89,13.29 11.83,12.12 L16,12.12 L16,13.88 L16,13.88 L16,13.88 L16,13.88 C16.7733064,12.5593311 18.2107056,11.7714518 19.74,11.83 C22.45,11.83 24.5,13.6 24.5,17.4 Z" id="icon" fill="#000000" fill-rule="nonzero"></path>
            </g>
        </g>
        <g id="icons/green/linkedin" transform="translate(90.000000, 60.000000)">
            <g id="black/linkedin">
                <rect id="size" x="0" y="0" width="30" height="30"></rect>
                <path d="M5.5,24.5 L9.72,24.5 L9.72,11.83 L5.5,11.83 L5.5,24.5 Z M7.62,5.5 C7.04943464,5.46477475 6.49106665,5.6753844 6.0858934,6.07864645 C5.68072015,6.48190851 5.46747283,7.03927447 5.5,7.61 C5.46868794,8.17160436 5.67531038,8.72043403 6.06921731,9.12195269 C6.46312423,9.52347134 7.00789927,9.7405589 7.57,9.72 L7.57,9.72 C8.14056536,9.75522525 8.69893335,9.5446156 9.1041066,9.14135355 C9.50927985,8.73809149 9.72252717,8.18072553 9.69,7.61 C9.72131206,7.04839564 9.51468962,6.49956597 9.12078269,6.09804731 C8.72687577,5.69652866 8.18210073,5.4794411 7.62,5.5 Z M24.5,17.4 L24.5,24.5 L20.35,24.5 L20.35,17.88 C20.35,16.22 19.75,15.08 18.25,15.08 C17.2926127,15.0837964 16.44053,15.6878551 16.12,16.59 C16.0120117,16.9118351 15.964545,17.2508828 15.98,17.59 L15.98,24.5 L11.83,24.5 C11.83,24.5 11.89,13.29 11.83,12.12 L16,12.12 L16,13.88 L16,13.88 L16,13.88 L16,13.88 C16.7733064,12.5593311 18.2107056,11.7714518 19.74,11.83 C22.45,11.83 24.5,13.6 24.5,17.4 Z" id="icon" fill="#8EE7D4" fill-rule="nonzero"></path>
            </g>
        </g>
        <g id="icons/white/linkedin" transform="translate(90.000000, 30.000000)">
            <g id="black/linkedin">
                <rect id="size" x="0" y="0" width="30" height="30"></rect>
                <path d="M5.5,24.5 L9.72,24.5 L9.72,11.83 L5.5,11.83 L5.5,24.5 Z M7.62,5.5 C7.04943464,5.46477475 6.49106665,5.6753844 6.0858934,6.07864645 C5.68072015,6.48190851 5.46747283,7.03927447 5.5,7.61 C5.46868794,8.17160436 5.67531038,8.72043403 6.06921731,9.12195269 C6.46312423,9.52347134 7.00789927,9.7405589 7.57,9.72 L7.57,9.72 C8.14056536,9.75522525 8.69893335,9.5446156 9.1041066,9.14135355 C9.50927985,8.73809149 9.72252717,8.18072553 9.69,7.61 C9.72131206,7.04839564 9.51468962,6.49956597 9.12078269,6.09804731 C8.72687577,5.69652866 8.18210073,5.4794411 7.62,5.5 Z M24.5,17.4 L24.5,24.5 L20.35,24.5 L20.35,17.88 C20.35,16.22 19.75,15.08 18.25,15.08 C17.2926127,15.0837964 16.44053,15.6878551 16.12,16.59 C16.0120117,16.9118351 15.964545,17.2508828 15.98,17.59 L15.98,24.5 L11.83,24.5 C11.83,24.5 11.89,13.29 11.83,12.12 L16,12.12 L16,13.88 L16,13.88 L16,13.88 L16,13.88 C16.7733064,12.5593311 18.2107056,11.7714518 19.74,11.83 C22.45,11.83 24.5,13.6 24.5,17.4 Z" id="icon" fill="#FFFFFF" fill-rule="nonzero"></path>
            </g>
        </g>
        <g id="icons/white/facebook" transform="translate(120.000000, 30.000000)">
            <g id="black/facebook">
                <rect id="size" x="0" y="0" width="30" height="30"></rect>
                <path d="M24,5 L6,5 C5.46052382,5.02976246 5.02976246,5.46052382 5,6 L5,24 C5.02976246,24.5394762 5.46052382,24.9702375 6,25 L16,25 L16,17 L13,17 L13,14 L16,14 L16,12 C15.68,9.43 17.26,8 20,8 C20.6652835,8.0607318 21.3347165,8.0607318 22,8 L22,11 L20,11 C19,10.84 18.8,11.44 19,12 L19,14 L22,14 L21,17 L19,17 L19,25 L24,25 C24.5394762,24.9702375 24.9702375,24.5394762 25,24 L25,6 C24.9702375,5.46052382 24.5394762,5.02976246 24,5" id="icon" fill="#FFFFFF" fill-rule="nonzero"></path>
            </g>
        </g>
        <g id="icons/black/facebook" transform="translate(120.000000, 0.000000)">
            <g id="black/facebook">
                <rect id="size" x="0" y="0" width="30" height="30"></rect>
                <path d="M24,5 L6,5 C5.46052382,5.02976246 5.02976246,5.46052382 5,6 L5,24 C5.02976246,24.5394762 5.46052382,24.9702375 6,25 L16,25 L16,17 L13,17 L13,14 L16,14 L16,12 C15.68,9.43 17.26,8 20,8 C20.6652835,8.0607318 21.3347165,8.0607318 22,8 L22,11 L20,11 C19,10.84 18.8,11.44 19,12 L19,14 L22,14 L21,17 L19,17 L19,25 L24,25 C24.5394762,24.9702375 24.9702375,24.5394762 25,24 L25,6 C24.9702375,5.46052382 24.5394762,5.02976246 24,5" id="icon" fill="#000000" fill-rule="nonzero"></path>
            </g>
        </g>
        <g id="icons/green/facebook" transform="translate(120.000000, 60.000000)">
            <g id="black/facebook">
                <rect id="size" x="0" y="0" width="30" height="30"></rect>
                <path d="M24,5 L6,5 C5.46052382,5.02976246 5.02976246,5.46052382 5,6 L5,24 C5.02976246,24.5394762 5.46052382,24.9702375 6,25 L16,25 L16,17 L13,17 L13,14 L16,14 L16,12 C15.68,9.43 17.26,8 20,8 C20.6652835,8.0607318 21.3347165,8.0607318 22,8 L22,11 L20,11 C19,10.84 18.8,11.44 19,12 L19,14 L22,14 L21,17 L19,17 L19,25 L24,25 C24.5394762,24.9702375 24.9702375,24.5394762 25,24 L25,6 C24.9702375,5.46052382 24.5394762,5.02976246 24,5" id="icon" fill="#8EE7D4" fill-rule="nonzero"></path>
            </g>
        </g>
        <g id="icons/white/instagram" transform="translate(150.000000, 30.000000)">
            <g id="black/instagram">
                <rect id="size" x="0" y="0" width="30" height="30"></rect>
                <path d="M25,15 C25,16.74 24.93,18.49 24.87,20.24 C24.858074,21.0119592 24.6807546,21.7723865 24.35,22.47 C23.7969386,23.6556749 22.6989916,24.4959405 21.41,24.72 C20.6500798,24.8831647 19.8768958,24.976884 19.1,25 C16.59,25 14.1,25.05 11.56,25 C10.5546943,25.0290423 9.54912967,24.951949 8.56,24.77 C6.79659866,24.4501646 5.44222563,23.0270622 5.21,21.25 C5.07914051,20.4296184 5.00895022,19.6007045 5,18.77 C5,16.39 5,14 5,11.62 C4.96959972,10.6146624 5.04670402,9.60895418 5.23,8.62 C5.54719877,6.74510906 7.10356123,5.3291082 9,5.19 C10.0258824,5.07169485 11.0573518,5.00827117 12.09,5 C14.2,5 16.31,5 18.43,5 C19.402147,4.97127739 20.3745339,5.04839773 21.33,5.23 C23.2109309,5.54228443 24.6353439,7.09881685 24.78,9 C24.9,10 24.92,11 24.95,12 C24.98,13 24.95,14 24.95,15 L24.95,15 M21.19,15 C21.1817379,12.4635675 19.643731,10.1828078 17.2953091,9.22443811 C14.9468872,8.2660684 12.2522607,8.81952879 10.4717135,10.6259644 C8.69116628,12.4324 8.17665749,15.1347344 9.16882422,17.4690786 C10.160991,19.8034229 12.4637125,21.3083494 15,21.28 C16.6602579,21.2747041 18.2504111,20.6100859 19.42064,19.4323556 C20.5908688,18.2546253 21.2453128,16.6602578 21.2400321,15 M21.5,7 C20.697526,7.0166825 20.0567858,7.67397325 20.0605527,8.47661169 C20.0643528,9.27925014 20.7112611,9.93047114 21.5138567,9.93958763 C22.3164523,9.94870413 22.9779859,9.31234542 23,8.51 C23.0169718,8.10631204 22.8647371,7.71385033 22.5799852,7.42720009 C22.2952333,7.14054984 21.9037918,6.98571082 21.5,7 M15,10.94 C13.3468558,10.9115677 11.8407918,11.8860475 11.1892957,13.4056681 C10.5377996,14.9252888 10.8703558,16.688027 12.0307428,17.8658199 C13.1911299,19.0436127 14.9487218,19.4023749 16.4778732,18.7735743 C18.0070246,18.1447738 19.0038179,16.6533843 19.0000525,15 C19.0112125,12.7731655 17.22662,10.9528811 15,10.92" id="icon" fill="#FFFFFF" fill-rule="nonzero"></path>
            </g>
        </g>
        <g id="icons/black/instagram" transform="translate(150.000000, 0.000000)">
            <g id="black/instagram">
                <rect id="size" x="0" y="0" width="30" height="30"></rect>
                <path d="M25,15 C25,16.74 24.93,18.49 24.87,20.24 C24.858074,21.0119592 24.6807546,21.7723865 24.35,22.47 C23.7969386,23.6556749 22.6989916,24.4959405 21.41,24.72 C20.6500798,24.8831647 19.8768958,24.976884 19.1,25 C16.59,25 14.1,25.05 11.56,25 C10.5546943,25.0290423 9.54912967,24.951949 8.56,24.77 C6.79659866,24.4501646 5.44222563,23.0270622 5.21,21.25 C5.07914051,20.4296184 5.00895022,19.6007045 5,18.77 C5,16.39 5,14 5,11.62 C4.96959972,10.6146624 5.04670402,9.60895418 5.23,8.62 C5.54719877,6.74510906 7.10356123,5.3291082 9,5.19 C10.0258824,5.07169485 11.0573518,5.00827117 12.09,5 C14.2,5 16.31,5 18.43,5 C19.402147,4.97127739 20.3745339,5.04839773 21.33,5.23 C23.2109309,5.54228443 24.6353439,7.09881685 24.78,9 C24.9,10 24.92,11 24.95,12 C24.98,13 24.95,14 24.95,15 L24.95,15 M21.19,15 C21.1817379,12.4635675 19.643731,10.1828078 17.2953091,9.22443811 C14.9468872,8.2660684 12.2522607,8.81952879 10.4717135,10.6259644 C8.69116628,12.4324 8.17665749,15.1347344 9.16882422,17.4690786 C10.160991,19.8034229 12.4637125,21.3083494 15,21.28 C16.6602579,21.2747041 18.2504111,20.6100859 19.42064,19.4323556 C20.5908688,18.2546253 21.2453128,16.6602578 21.2400321,15 M21.5,7 C20.697526,7.0166825 20.0567858,7.67397325 20.0605527,8.47661169 C20.0643528,9.27925014 20.7112611,9.93047114 21.5138567,9.93958763 C22.3164523,9.94870413 22.9779859,9.31234542 23,8.51 C23.0169718,8.10631204 22.8647371,7.71385033 22.5799852,7.42720009 C22.2952333,7.14054984 21.9037918,6.98571082 21.5,7 M15,10.94 C13.3468558,10.9115677 11.8407918,11.8860475 11.1892957,13.4056681 C10.5377996,14.9252888 10.8703558,16.688027 12.0307428,17.8658199 C13.1911299,19.0436127 14.9487218,19.4023749 16.4778732,18.7735743 C18.0070246,18.1447738 19.0038179,16.6533843 19.0000525,15 C19.0112125,12.7731655 17.22662,10.9528811 15,10.92" id="icon" fill="#000000" fill-rule="nonzero"></path>
            </g>
        </g>
        <g id="icons/green/instagram" transform="translate(150.000000, 60.000000)">
            <g id="black/instagram">
                <rect id="size" x="0" y="0" width="30" height="30"></rect>
                <path d="M25,15 C25,16.74 24.93,18.49 24.87,20.24 C24.858074,21.0119592 24.6807546,21.7723865 24.35,22.47 C23.7969386,23.6556749 22.6989916,24.4959405 21.41,24.72 C20.6500798,24.8831647 19.8768958,24.976884 19.1,25 C16.59,25 14.1,25.05 11.56,25 C10.5546943,25.0290423 9.54912967,24.951949 8.56,24.77 C6.79659866,24.4501646 5.44222563,23.0270622 5.21,21.25 C5.07914051,20.4296184 5.00895022,19.6007045 5,18.77 C5,16.39 5,14 5,11.62 C4.96959972,10.6146624 5.04670402,9.60895418 5.23,8.62 C5.54719877,6.74510906 7.10356123,5.3291082 9,5.19 C10.0258824,5.07169485 11.0573518,5.00827117 12.09,5 C14.2,5 16.31,5 18.43,5 C19.402147,4.97127739 20.3745339,5.04839773 21.33,5.23 C23.2109309,5.54228443 24.6353439,7.09881685 24.78,9 C24.9,10 24.92,11 24.95,12 C24.98,13 24.95,14 24.95,15 L24.95,15 M21.19,15 C21.1817379,12.4635675 19.643731,10.1828078 17.2953091,9.22443811 C14.9468872,8.2660684 12.2522607,8.81952879 10.4717135,10.6259644 C8.69116628,12.4324 8.17665749,15.1347344 9.16882422,17.4690786 C10.160991,19.8034229 12.4637125,21.3083494 15,21.28 C16.6602579,21.2747041 18.2504111,20.6100859 19.42064,19.4323556 C20.5908688,18.2546253 21.2453128,16.6602578 21.2400321,15 M21.5,7 C20.697526,7.0166825 20.0567858,7.67397325 20.0605527,8.47661169 C20.0643528,9.27925014 20.7112611,9.93047114 21.5138567,9.93958763 C22.3164523,9.94870413 22.9779859,9.31234542 23,8.51 C23.0169718,8.10631204 22.8647371,7.71385033 22.5799852,7.42720009 C22.2952333,7.14054984 21.9037918,6.98571082 21.5,7 M15,10.94 C13.3468558,10.9115677 11.8407918,11.8860475 11.1892957,13.4056681 C10.5377996,14.9252888 10.8703558,16.688027 12.0307428,17.8658199 C13.1911299,19.0436127 14.9487218,19.4023749 16.4778732,18.7735743 C18.0070246,18.1447738 19.0038179,16.6533843 19.0000525,15 C19.0112125,12.7731655 17.22662,10.9528811 15,10.92" id="icon" fill="#8EE7D4" fill-rule="nonzero"></path>
            </g>
        </g>
        <g id="icons/black/twitter" transform="translate(180.000000, 0.000000)">
            <g id="icons/dark/twitter">
                <rect id="size" x="0" y="0" width="30" height="30"></rect>
                <path d="M23.75,10.58 C23.75,10.77 23.75,10.96 23.75,11.16 C23.747667,14.5446757 22.3890442,17.7872496 19.97793,20.1626576 C17.5668157,22.5380655 14.3043338,23.8481622 10.92,23.8 C8.46983132,23.8067038 6.06881804,23.1127694 4,21.8 C4.35857013,21.8404735 4.71915323,21.8605059 5.08,21.86 C7.10638424,21.8692928 9.07764335,21.2004727 10.68,19.96 C8.76404833,19.9343597 7.07447177,18.69828 6.47,16.88 C6.75026477,16.9327884 7.03480749,16.9595689 7.32,16.96 C7.71865214,16.9587055 8.11539735,16.9049095 8.5,16.8 C6.41010632,16.3992658 4.89441018,14.5779182 4.88,12.45 L4.88,12.39 C5.51174942,12.7303992 6.21292842,12.9219408 6.93,12.95 C5.68440682,12.1306787 4.93317455,10.740899 4.93,9.25 C4.92281593,8.45953704 5.13017832,7.68192809 5.53,7 C7.84298156,9.78677702 11.2223415,11.4710123 14.84,11.64 C14.7597443,11.3127393 14.7194505,10.9769574 14.72,10.64 C14.7420015,8.16965772 16.7596158,6.1833589 19.23,6.1998962 C20.4747592,6.19777062 21.6665681,6.70338652 22.53,7.6 C23.5371532,7.40293424 24.5039781,7.03783951 25.39,6.52 C25.0454691,7.55636887 24.3342308,8.43119203 23.39,8.98 C24.2834583,8.87738113 25.1564897,8.64142669 25.98,8.28 C25.3752701,9.17643163 24.612926,9.95571673 23.73,10.58" id="icon" fill="#000000" fill-rule="nonzero"></path>
            </g>
        </g>
        <g id="icons/green/twitter" transform="translate(180.000000, 60.000000)">
            <g id="icons/dark/twitter">
                <rect id="size" x="0" y="0" width="30" height="30"></rect>
                <path d="M23.75,10.58 C23.75,10.77 23.75,10.96 23.75,11.16 C23.747667,14.5446757 22.3890442,17.7872496 19.97793,20.1626576 C17.5668157,22.5380655 14.3043338,23.8481622 10.92,23.8 C8.46983132,23.8067038 6.06881804,23.1127694 4,21.8 C4.35857013,21.8404735 4.71915323,21.8605059 5.08,21.86 C7.10638424,21.8692928 9.07764335,21.2004727 10.68,19.96 C8.76404833,19.9343597 7.07447177,18.69828 6.47,16.88 C6.75026477,16.9327884 7.03480749,16.9595689 7.32,16.96 C7.71865214,16.9587055 8.11539735,16.9049095 8.5,16.8 C6.41010632,16.3992658 4.89441018,14.5779182 4.88,12.45 L4.88,12.39 C5.51174942,12.7303992 6.21292842,12.9219408 6.93,12.95 C5.68440682,12.1306787 4.93317455,10.740899 4.93,9.25 C4.92281593,8.45953704 5.13017832,7.68192809 5.53,7 C7.84298156,9.78677702 11.2223415,11.4710123 14.84,11.64 C14.7597443,11.3127393 14.7194505,10.9769574 14.72,10.64 C14.7420015,8.16965772 16.7596158,6.1833589 19.23,6.1998962 C20.4747592,6.19777062 21.6665681,6.70338652 22.53,7.6 C23.5371532,7.40293424 24.5039781,7.03783951 25.39,6.52 C25.0454691,7.55636887 24.3342308,8.43119203 23.39,8.98 C24.2834583,8.87738113 25.1564897,8.64142669 25.98,8.28 C25.3752701,9.17643163 24.612926,9.95571673 23.73,10.58" id="icon" fill="#8EE7D4" fill-rule="nonzero"></path>
            </g>
        </g>
        <g id="icons/white/twitter" transform="translate(180.000000, 30.000000)">
            <g id="icons/dark/twitter">
                <rect id="size" x="0" y="0" width="30" height="30"></rect>
                <path d="M23.75,10.58 C23.75,10.77 23.75,10.96 23.75,11.16 C23.747667,14.5446757 22.3890442,17.7872496 19.97793,20.1626576 C17.5668157,22.5380655 14.3043338,23.8481622 10.92,23.8 C8.46983132,23.8067038 6.06881804,23.1127694 4,21.8 C4.35857013,21.8404735 4.71915323,21.8605059 5.08,21.86 C7.10638424,21.8692928 9.07764335,21.2004727 10.68,19.96 C8.76404833,19.9343597 7.07447177,18.69828 6.47,16.88 C6.75026477,16.9327884 7.03480749,16.9595689 7.32,16.96 C7.71865214,16.9587055 8.11539735,16.9049095 8.5,16.8 C6.41010632,16.3992658 4.89441018,14.5779182 4.88,12.45 L4.88,12.39 C5.51174942,12.7303992 6.21292842,12.9219408 6.93,12.95 C5.68440682,12.1306787 4.93317455,10.740899 4.93,9.25 C4.92281593,8.45953704 5.13017832,7.68192809 5.53,7 C7.84298156,9.78677702 11.2223415,11.4710123 14.84,11.64 C14.7597443,11.3127393 14.7194505,10.9769574 14.72,10.64 C14.7420015,8.16965772 16.7596158,6.1833589 19.23,6.1998962 C20.4747592,6.19777062 21.6665681,6.70338652 22.53,7.6 C23.5371532,7.40293424 24.5039781,7.03783951 25.39,6.52 C25.0454691,7.55636887 24.3342308,8.43119203 23.39,8.98 C24.2834583,8.87738113 25.1564897,8.64142669 25.98,8.28 C25.3752701,9.17643163 24.612926,9.95571673 23.73,10.58" id="icon" fill="#FFFFFF" fill-rule="nonzero"></path>
            </g>
        </g>
    </g>
</svg>